<svg width="49" height="50" viewBox="0 0 49 50" fill="none" xmlns="http://www.w3.org/2000/svg">
<path d="M48.4252 8.5863L40.5854 0.586555C40.4034 0.400608 40.1872 0.253094 39.9493 0.152449C39.7114 0.0518032 39.4563 0 39.1988 0C38.9412 0 38.6862 0.0518032 38.4482 0.152449C38.2103 0.253094 37.9941 0.400608 37.8121 0.586555L14.2928 24.5858C14.1109 24.7717 13.9666 24.9923 13.8683 25.2351C13.7699 25.4779 13.7194 25.738 13.7196 26.0008V34.0005C13.7196 34.5309 13.9261 35.0396 14.2936 35.4147C14.6612 35.7897 15.1597 36.0004 15.6795 36.0004H23.5193C23.7767 36.0006 24.0317 35.9491 24.2696 35.8487C24.5076 35.7483 24.7238 35.6011 24.9059 35.4155L48.4252 11.4162C48.6074 11.2305 48.752 11.0099 48.8506 10.7671C48.9492 10.5243 49 10.2641 49 10.0013C49 9.73844 48.9492 9.47819 48.8506 9.2354C48.752 8.99261 48.6074 8.77204 48.4252 8.5863ZM22.7083 32.0006H17.6394V26.8282L33.319 10.8287L38.3878 16.0011L22.7083 32.0006ZM41.1587 13.1737L36.0898 8.00132L39.1988 4.82892L44.2677 10.0013L41.1587 13.1737ZM47.0385 26.0008V46.0001C47.0385 47.061 46.6255 48.0783 45.8904 48.8285C45.1553 49.5786 44.1583 50 43.1186 50H3.91988C2.88026 50 1.88322 49.5786 1.14811 48.8285C0.412986 48.0783 0 47.061 0 46.0001V6.00138C0 4.94055 0.412986 3.92317 1.14811 3.17305C1.88322 2.42292 2.88026 2.00151 3.91988 2.00151H23.5193C24.0391 2.00151 24.5376 2.21222 24.9051 2.58728C25.2727 2.96234 25.4792 3.47103 25.4792 4.00145C25.4792 4.53186 25.2727 5.04056 24.9051 5.41562C24.5376 5.79068 24.0391 6.00138 23.5193 6.00138H3.91988V46.0001H43.1186V26.0008C43.1186 25.4703 43.3251 24.9616 43.6927 24.5866C44.0603 24.2115 44.5588 24.0008 45.0786 24.0008C45.5984 24.0008 46.0969 24.2115 46.4645 24.5866C46.832 24.9616 47.0385 25.4703 47.0385 26.0008Z" fill="#449B70"/>
</svg>
