<svg width="50" height="50" viewBox="0 0 50 50" fill="none" xmlns="http://www.w3.org/2000/svg">
<path d="M0.146797 25.7363C0.292274 26.0877 0.538689 26.3881 0.854881 26.5995C1.17108 26.8108 1.54285 26.9237 1.92318 26.9238H11.5382V40.3849C11.5382 40.8949 11.7408 41.384 12.1015 41.7447C12.4621 42.1053 12.9512 42.3079 13.4613 42.3079H36.5374C37.0474 42.3079 37.5365 42.1053 37.8972 41.7447C38.2578 41.384 38.4604 40.8949 38.4604 40.3849V26.9238H48.0755C48.456 26.9241 48.8281 26.8115 49.1446 26.6002C49.4611 26.3889 49.7079 26.0884 49.8535 25.7369C49.9992 25.3853 50.0373 24.9984 49.963 24.6252C49.8886 24.2519 49.7052 23.9092 49.436 23.6402L26.3599 0.563992C26.1813 0.385197 25.9692 0.243359 25.7357 0.146584C25.5023 0.0498085 25.252 0 24.9993 0C24.7466 0 24.4964 0.0498085 24.2629 0.146584C24.0295 0.243359 23.8174 0.385197 23.6388 0.563992L0.562645 23.6402C0.293797 23.9093 0.110786 24.2521 0.0367661 24.6252C-0.0372581 24.9983 0.00103378 25.385 0.146797 25.7363ZM24.9993 4.6432L43.4338 23.0777H36.5374C36.0274 23.0777 35.5383 23.2803 35.1776 23.641C34.817 24.0016 34.6144 24.4907 34.6144 25.0008V38.4619H15.3843V25.0008C15.3843 24.4907 15.1817 24.0016 14.821 23.641C14.4604 23.2803 13.9713 23.0777 13.4613 23.0777H6.56485L24.9993 4.6432ZM38.4604 48.077C38.4604 48.587 38.2578 49.0761 37.8972 49.4368C37.5365 49.7974 37.0474 50 36.5374 50H13.4613C12.9512 50 12.4621 49.7974 12.1015 49.4368C11.7408 49.0761 11.5382 48.587 11.5382 48.077C11.5382 47.567 11.7408 47.0778 12.1015 46.7172C12.4621 46.3566 12.9512 46.154 13.4613 46.154H36.5374C37.0474 46.154 37.5365 46.3566 37.8972 46.7172C38.2578 47.0778 38.4604 47.567 38.4604 48.077Z" fill="#449B70"/>
</svg>
