<svg width="43" height="35" viewBox="0 0 43 35" fill="none" xmlns="http://www.w3.org/2000/svg">
<path d="M42.0026 1.99395C41.7557 1.4854 41.3465 1.05277 40.826 0.749878C40.3055 0.446985 39.6966 0.28719 39.075 0.290368H3.78399C3.16305 0.291459 2.55581 0.453165 2.03593 0.75587C1.51605 1.05857 1.10588 1.48927 0.855167 1.99571C0.604457 2.50214 0.523986 3.06256 0.623515 3.60896C0.723044 4.15537 0.998295 4.66429 1.41588 5.07398L1.43192 5.09007L15.0129 18.018V31.7521C15.0128 32.2697 15.1703 32.7777 15.4685 33.2219C15.7668 33.666 16.1946 34.0297 16.7065 34.2741C17.2184 34.5185 17.795 34.6344 18.375 34.6096C18.955 34.5848 19.5166 34.4201 19.9998 34.1332L26.4164 30.3184C26.8562 30.0572 27.2169 29.7032 27.4663 29.2878C27.7157 28.8724 27.8462 28.4085 27.8461 27.9373V18.018L41.4291 5.09007L41.4451 5.07398C41.8671 4.66616 42.145 4.15656 42.2442 3.60881C42.3433 3.06105 42.2593 2.49939 42.0026 1.99395ZM25.0749 16.4824C24.7974 16.7447 24.6413 17.0908 24.6378 17.4513V27.9373L18.2212 31.7521V17.4513C18.2213 17.0882 18.0665 16.7386 17.7881 16.4735L3.78399 3.15052H39.075L25.0749 16.4824Z" fill="#F5F5F5"/>
</svg>
