<svg width="277" height="91" viewBox="0 0 277 91" fill="none" xmlns="http://www.w3.org/2000/svg">
<path fill-rule="evenodd" clip-rule="evenodd" d="M210.097 26.2623C210.097 28.3046 208.418 29.9588 206.346 29.9588C204.273 29.9588 202.594 28.3046 202.594 26.2623V5.53613C202.594 3.49387 204.273 1.8396 206.346 1.8396H252.214C253.232 1.8396 254.175 2.23853 254.892 2.94857L275.878 23.627C276.606 24.337 277.007 25.2666 277 26.2988V84.3744C277 86.4167 275.321 88.0709 273.248 88.0709H233.505C231.432 88.0709 229.753 86.4167 229.753 84.3744C229.753 82.3321 231.432 80.6779 233.505 80.6779H269.5V29.9582H252.213C250.14 29.9582 248.462 28.3039 248.462 26.2617V9.22798H210.096L210.097 26.2623ZM193.241 88.0679H219.453C221.526 88.0679 223.204 86.4137 223.204 84.3714C223.204 82.3291 221.526 80.6749 219.453 80.6749L193.241 80.6785C191.168 80.6785 189.49 82.3328 189.49 84.3751C189.49 86.4173 191.168 88.0716 193.241 88.0716V88.0679ZM216.916 57.2331L210.096 63.4184V39.1459C210.096 37.1036 208.418 35.4493 206.345 35.4493C204.272 35.4493 202.593 37.1036 202.593 39.1459V63.4184L195.774 57.2331C194.251 55.8532 191.885 55.9521 190.485 57.449C189.084 58.9496 189.184 61.2809 190.704 62.6608C195.016 66.5732 199.314 70.5259 203.652 74.4091C204.335 75.1008 205.286 75.529 206.341 75.529C207.407 75.529 208.369 75.0899 209.049 74.3908L221.979 62.6603C223.502 61.2804 223.598 58.9455 222.198 57.4485C220.798 55.9479 218.432 55.8528 216.909 57.2326L216.916 57.2331ZM264.197 22.5661L255.966 14.4557V22.5661H264.197Z" fill="#449B70"/>
<path d="M14.5648 0C21.6778 0 26.0247 4.33879 28.1699 8.01007L21.5085 11.9595C19.3068 9.17821 17.3874 7.89882 14.5648 7.89882C12.1373 7.89882 10.3308 9.28946 10.3308 11.2364C10.3308 13.2389 11.4599 14.2401 14.2825 15.1858L16.9358 16.1314C26.1376 19.3021 29.299 23.3071 29.299 28.4803C29.299 36.6016 21.5085 40.4397 14.7342 40.4397C7.50821 40.4397 1.97584 36.2122 0 30.8165L6.94368 27.1453C8.355 29.6484 10.4438 32.374 14.7342 32.374C17.6697 32.374 19.8713 31.2059 19.8713 28.5915C19.8713 26.1996 18.5165 25.0871 14.2825 23.5296L12.0244 22.7508C6.2098 20.6927 1.29841 17.967 1.29841 10.847C1.29841 4.50567 7.3953 0 14.5648 0ZM60.1221 0.667506V8.90008H50.5252V39.6054H41.4363V8.90008H31.8393V0.667506H60.1221ZM85.4694 0.111251C96.647 0.111251 106.018 8.2882 106.018 20.1364C106.018 31.9847 96.647 40.1616 85.4694 40.1616C74.2917 40.1616 64.9206 31.9847 64.9206 20.1364C64.9206 8.2882 74.2917 0.111251 85.4694 0.111251ZM85.4694 31.7622C91.8485 31.7622 96.5906 26.8671 96.5906 20.1364C96.5906 13.4057 91.8485 8.5107 85.4694 8.5107C79.0902 8.5107 74.4047 13.4057 74.4047 20.1364C74.4047 26.8671 79.0902 31.7622 85.4694 31.7622ZM145.366 35.4334C141.809 38.5485 137.18 40.1616 131.817 40.1616C120.639 40.1616 111.155 31.9847 111.155 20.1364C111.155 8.2882 120.639 0.111251 131.817 0.111251C137.124 0.111251 141.696 1.78002 145.14 4.72817L139.664 10.7913C137.688 9.45634 135.035 8.5107 132.382 8.5107C125.438 8.5107 120.639 13.4057 120.639 20.1364C120.639 26.8671 125.438 31.7622 132.382 31.7622C135.148 31.7622 137.97 30.7053 139.946 29.1478L145.366 35.4334ZM176.245 39.6054L164.673 23.3071L160.1 28.4803V39.6054H150.729V0.667506H160.1V16.632L173.592 0.667506H184.77L170.261 17.0214L186.689 39.6054H176.245Z" fill="url(#paint0_linear_243_730)"/>
<path d="M81.0527 81.2328H96.2151V89.5454H71.8755V50.229H81.0527V81.2328ZM121.809 49.6674C133.095 49.6674 142.557 57.9238 142.557 69.8872C142.557 81.8507 133.095 90.1071 121.809 90.1071C110.523 90.1071 101.06 81.8507 101.06 69.8872C101.06 57.9238 110.523 49.6674 121.809 49.6674ZM121.809 81.626C128.25 81.626 133.038 76.6834 133.038 69.8872C133.038 63.0911 128.25 58.1485 121.809 58.1485C115.368 58.1485 110.637 63.0911 110.637 69.8872C110.637 76.6834 115.368 81.626 121.809 81.626ZM186.107 68.3707C188.045 81.7383 179.323 90.1071 168.493 90.1071C157.036 90.1071 147.745 81.8507 147.745 69.8872C147.745 57.9238 157.207 49.6674 168.493 49.6674C173.851 49.6674 178.525 51.3523 182.002 54.3292L176.473 60.4513C174.478 59.1033 171.799 58.1485 169.063 58.1485C162.052 58.1485 157.321 63.0911 157.321 69.8872C157.321 76.6834 161.881 81.626 168.493 81.626C173.338 81.626 176.473 80.1657 177.67 76.0094H168.778V68.3707H186.107Z" fill="url(#paint1_linear_243_730)"/>
<defs>
<linearGradient id="paint0_linear_243_730" x1="0" y1="0" x2="186.689" y2="0" gradientUnits="userSpaceOnUse">
<stop offset="0.278842" stop-color="#28DB83"/>
<stop offset="1" stop-color="#449B70"/>
</linearGradient>
<linearGradient id="paint1_linear_243_730" x1="71.8755" y1="49.6674" x2="186.378" y2="49.6674" gradientUnits="userSpaceOnUse">
<stop offset="0.278842" stop-color="#28DC84"/>
<stop offset="1" stop-color="#449B70"/>
</linearGradient>
</defs>
</svg>