<svg width="50" height="50" viewBox="0 0 50 50" fill="none" xmlns="http://www.w3.org/2000/svg">
<path d="M38.4615 9.09091H3.84616C2.8261 9.09091 1.84782 9.56981 1.12653 10.4222C0.405232 11.2747 0 12.4308 0 13.6364V45.4545C0 46.6601 0.405232 47.8162 1.12653 48.6687C1.84782 49.5211 2.8261 50 3.84616 50H38.4615C39.4816 50 40.4599 49.5211 41.1812 48.6687C41.9025 47.8162 42.3077 46.6601 42.3077 45.4545V13.6364C42.3077 12.4308 41.9025 11.2747 41.1812 10.4222C40.4599 9.56981 39.4816 9.09091 38.4615 9.09091ZM38.4615 45.4545H3.84616V13.6364H38.4615V45.4545ZM50 4.54545V38.6364C50 39.2391 49.7974 39.8172 49.4367 40.2434C49.0761 40.6696 48.587 40.9091 48.0769 40.9091C47.5669 40.9091 47.0777 40.6696 46.7171 40.2434C46.3565 39.8172 46.1538 39.2391 46.1538 38.6364V4.54545H9.61539C9.10536 4.54545 8.6162 4.30601 8.25555 3.87979C7.89491 3.45357 7.69232 2.87549 7.69232 2.27273C7.69232 1.66996 7.89491 1.09189 8.25555 0.665667C8.6162 0.239448 9.10536 0 9.61539 0H46.1538C47.1739 0 48.1522 0.478895 48.8735 1.33133C49.5948 2.18377 50 3.33992 50 4.54545Z" fill="#449B70"/>
</svg>