<svg width="40" height="40" viewBox="0 0 40 40" fill="none" xmlns="http://www.w3.org/2000/svg">
<path d="M34.6343 6.3777L37.9012 2.78515C38.1923 2.45718 38.3423 2.02776 38.3187 1.58997C38.2952 1.15218 38.0999 0.741322 37.7753 0.446464C37.4508 0.151605 37.023 -0.00348541 36.5848 0.0148161C36.1466 0.0331176 35.7332 0.223336 35.4344 0.544231L32.1675 4.1347C28.1897 1.08097 23.209 -0.366595 18.2134 0.0791962C13.2177 0.524987 8.57227 2.83156 5.19856 6.5413C1.82485 10.251 -0.0305762 15.0929 0.000381236 20.1063C0.0313387 25.1197 1.94642 29.9383 5.36568 33.6061L2.09879 37.1986C1.94851 37.36 1.83176 37.5496 1.75531 37.7564C1.67886 37.9632 1.64424 38.1832 1.65344 38.4034C1.66265 38.6237 1.71551 38.84 1.80895 39.0397C1.90239 39.2394 2.03455 39.4186 2.19778 39.5669C2.36101 39.7152 2.55206 39.8296 2.75986 39.9035C2.96765 39.9775 3.18806 40.0094 3.40831 39.9976C3.62856 39.9858 3.84426 39.9303 4.04293 39.8345C4.24159 39.7388 4.41925 39.6045 4.56563 39.4396L7.83251 35.8491C11.8103 38.9028 16.791 40.3504 21.7866 39.9046C26.7823 39.4588 31.4277 37.1522 34.8014 33.4425C38.1752 29.7327 40.0306 24.8909 39.9996 19.8775C39.9687 14.8641 38.0536 10.0455 34.6343 6.3777ZM3.33221 19.9919C3.33406 16.9074 4.19247 13.884 5.81182 11.2584C7.43118 8.63274 9.7479 6.50801 12.504 5.12082C15.26 3.73362 18.3472 3.13843 21.4217 3.40153C24.4962 3.66462 27.4373 4.77568 29.9173 6.61095L7.62417 31.1298C4.86023 28.0783 3.33041 24.1083 3.33221 19.9919ZM20 36.653C16.4269 36.6568 12.9483 35.5062 10.0827 33.3728L32.3758 8.85395C34.5327 11.2457 35.9494 14.2113 36.4545 17.3915C36.9596 20.5717 36.5314 23.8301 35.2217 26.772C33.912 29.7139 31.777 32.213 29.0754 33.9668C26.3737 35.7205 23.2213 36.6536 20 36.653Z" fill="#449B70"/>
</svg>
