<svg width="50" height="50" viewBox="0 0 50 50" fill="none" xmlns="http://www.w3.org/2000/svg">
<path d="M48.9149 24.0744L25.9262 1.08568C25.5835 0.740257 25.1756 0.466397 24.7262 0.28002C24.2767 0.0936419 23.7947 -0.00153576 23.3081 1.87385e-05H1.85189C1.36074 1.87385e-05 0.889713 0.195126 0.54242 0.54242C0.195126 0.889713 1.87385e-05 1.36074 1.87385e-05 1.85189V23.3081C-0.00153576 23.7947 0.0936419 24.2767 0.28002 24.7262C0.466397 25.1756 0.740257 25.5835 1.08568 25.9262L24.0744 48.9149C24.4183 49.2589 24.8266 49.5318 25.276 49.718C25.7255 49.9042 26.2071 50 26.6936 50C27.18 50 27.6617 49.9042 28.1112 49.718C28.5606 49.5318 28.9689 49.2589 29.3128 48.9149L48.9149 29.3128C49.2589 28.9689 49.5318 28.5606 49.718 28.1112C49.9042 27.6617 50 27.18 50 26.6936C50 26.2071 49.9042 25.7255 49.718 25.276C49.5318 24.8266 49.2589 24.4183 48.9149 24.0744ZM26.6924 46.2968L3.70376 23.3081V3.70376H23.3081L46.2968 26.6924L26.6924 46.2968ZM14.815 12.0372C14.815 12.5866 14.6521 13.1236 14.3468 13.5805C14.0416 14.0373 13.6078 14.3933 13.1002 14.6035C12.5926 14.8138 12.0341 14.8688 11.4953 14.7616C10.9564 14.6544 10.4615 14.3899 10.073 14.0014C9.6845 13.6129 9.41993 13.118 9.31275 12.5791C9.20557 12.0403 9.26058 11.4817 9.47083 10.9742C9.68107 10.4666 10.0371 10.0328 10.4939 9.72752C10.9507 9.42229 11.4878 9.25938 12.0372 9.25938C12.7739 9.25938 13.4805 9.55204 14.0014 10.073C14.5223 10.5939 14.815 11.3005 14.815 12.0372Z" fill="#449B70"/>
</svg>