<svg width="50" height="50" viewBox="0 0 50 50" fill="none" xmlns="http://www.w3.org/2000/svg">
<path d="M45.8333 0H4.16667C3.0616 0 2.00179 0.438987 1.22039 1.22039C0.438987 2.00179 0 3.0616 0 4.16667V45.8333C0 46.9384 0.438987 47.9982 1.22039 48.7796C2.00179 49.561 3.0616 50 4.16667 50H45.8333C46.9384 50 47.9982 49.561 48.7796 48.7796C49.561 47.9982 50 46.9384 50 45.8333V4.16667C50 3.0616 49.561 2.00179 48.7796 1.22039C47.9982 0.438987 46.9384 0 45.8333 0ZM45.8333 45.8333H4.16667V4.16667H45.8333V45.8333ZM37.5 25C37.5 25.5525 37.2805 26.0824 36.8898 26.4731C36.4991 26.8638 35.9692 27.0833 35.4167 27.0833H14.5833C14.0308 27.0833 13.5009 26.8638 13.1102 26.4731C12.7195 26.0824 12.5 25.5525 12.5 25C12.5 24.4475 12.7195 23.9176 13.1102 23.5269C13.5009 23.1362 14.0308 22.9167 14.5833 22.9167H35.4167C35.9692 22.9167 36.4991 23.1362 36.8898 23.5269C37.2805 23.9176 37.5 24.4475 37.5 25Z" fill="#449B70"/>
</svg>