<svg width="50" height="50" viewBox="0 0 50 50" fill="none" xmlns="http://www.w3.org/2000/svg">
<path d="M49.8532 24.2637C49.7077 23.9123 49.4613 23.6119 49.1451 23.4005C48.8289 23.1892 48.4572 23.0763 48.0768 23.0762H38.4618V9.61509C38.4618 9.10508 38.2592 8.61595 37.8985 8.25531C37.5379 7.89468 37.0488 7.69208 36.5387 7.69208H13.4626C12.9526 7.69208 12.4635 7.89468 12.1028 8.25531C11.7422 8.61595 11.5396 9.10508 11.5396 9.61509V23.0762H1.92453C1.54397 23.0759 1.17188 23.1885 0.855366 23.3998C0.53885 23.6111 0.292139 23.9116 0.146466 24.2631C0.000793231 24.6147 -0.0372913 25.0016 0.0370339 25.3748C0.111359 25.7481 0.294752 26.0908 0.563995 26.3598L23.6401 49.436C23.8187 49.6148 24.0308 49.7566 24.2643 49.8534C24.4977 49.9502 24.748 50 25.0007 50C25.2534 50 25.5036 49.9502 25.7371 49.8534C25.9705 49.7566 26.1826 49.6148 26.3612 49.436L49.4374 26.3598C49.7062 26.0907 49.8892 25.7479 49.9632 25.3748C50.0373 25.0017 49.999 24.615 49.8532 24.2637ZM25.0007 45.3568L6.5662 26.9223H13.4626C13.9726 26.9223 14.4617 26.7197 14.8224 26.359C15.183 25.9984 15.3856 25.5093 15.3856 24.9992V11.5381H34.6157V24.9992C34.6157 25.5093 34.8183 25.9984 35.179 26.359C35.5396 26.7197 36.0287 26.9223 36.5387 26.9223H43.4352L25.0007 45.3568ZM11.5396 1.92302C11.5396 1.413 11.7422 0.923876 12.1028 0.56324C12.4635 0.202604 12.9526 0 13.4626 0H36.5387C37.0488 0 37.5379 0.202604 37.8985 0.56324C38.2592 0.923876 38.4618 1.413 38.4618 1.92302C38.4618 2.43304 38.2592 2.92216 37.8985 3.2828C37.5379 3.64343 37.0488 3.84604 36.5387 3.84604H13.4626C12.9526 3.84604 12.4635 3.64343 12.1028 3.2828C11.7422 2.92216 11.5396 2.43304 11.5396 1.92302Z" fill="#449B70"/>
</svg>
