<svg width="48" height="47" viewBox="0 0 48 47" fill="none" xmlns="http://www.w3.org/2000/svg">
<path d="M23.9781 46.5876C28.7205 46.5876 33.3564 45.2214 37.2995 42.6618C41.2427 40.1023 44.316 36.4643 46.1308 32.2079C47.9457 27.9515 48.4205 23.2679 47.4953 18.7494C46.5701 14.2308 44.2864 10.0803 40.9331 6.82259C37.5797 3.5649 33.3072 1.34638 28.656 0.447586C24.0047 -0.45121 19.1835 0.0100861 14.8021 1.77314C10.4208 3.53619 6.67591 6.52181 4.04118 10.3525C1.40645 14.1831 0.000167847 18.6867 0.000167847 23.2938C0.00688171 29.4697 2.53528 35.3907 7.03056 39.7578C11.5258 44.1248 17.6208 46.581 23.9781 46.5876ZM23.9781 3.58366C27.9909 3.58366 31.9136 4.73964 35.2501 6.90541C38.5866 9.07119 41.1871 12.1495 42.7227 15.751C44.2583 19.3526 44.6601 23.3156 43.8773 27.139C43.0944 30.9624 41.1621 34.4744 38.3246 37.2309C35.4871 39.9874 31.872 41.8647 27.9363 42.6252C24.0006 43.3857 19.9212 42.9954 16.2138 41.5036C12.5065 40.0117 9.33778 37.4854 7.1084 34.2441C4.87901 31.0028 3.68908 27.1921 3.68908 23.2938C3.69518 18.0681 5.83473 13.0582 9.63834 9.36317C13.4419 5.66809 18.599 3.58959 23.9781 3.58366ZM12.9114 23.2938C12.9114 22.8186 13.1057 22.3628 13.4516 22.0268C13.7975 21.6907 14.2666 21.5019 14.7558 21.5019H28.7483L24.5176 17.3942C24.3462 17.2277 24.2103 17.0301 24.1176 16.8125C24.0248 16.595 23.9771 16.3619 23.9771 16.1265C23.9771 15.891 24.0248 15.6579 24.1176 15.4404C24.2103 15.2229 24.3462 15.0252 24.5176 14.8587C24.689 14.6923 24.8924 14.5602 25.1163 14.4701C25.3402 14.38 25.5802 14.3336 25.8226 14.3336C26.0649 14.3336 26.3049 14.38 26.5288 14.4701C26.7527 14.5602 26.9561 14.6923 27.1275 14.8587L34.5053 22.0261C34.6768 22.1925 34.8129 22.3901 34.9057 22.6076C34.9985 22.8251 35.0463 23.0583 35.0463 23.2938C35.0463 23.5293 34.9985 23.7624 34.9057 23.9799C34.8129 24.1975 34.6768 24.3951 34.5053 24.5615L27.1275 31.7288C26.7814 32.065 26.312 32.2539 25.8226 32.2539C25.3331 32.2539 24.8637 32.065 24.5176 31.7288C24.1715 31.3926 23.9771 30.9366 23.9771 30.4611C23.9771 29.9856 24.1715 29.5296 24.5176 29.1934L28.7483 25.0856H14.7558C14.2666 25.0856 13.7975 24.8968 13.4516 24.5608C13.1057 24.2248 12.9114 23.769 12.9114 23.2938Z" fill="#EBEBEB"/>
</svg>
