<svg width="49" height="47" viewBox="0 0 49 47" fill="none" xmlns="http://www.w3.org/2000/svg">
<path d="M24.5346 0.13147C19.7922 0.13147 15.1563 1.49763 11.2132 4.05718C7.27001 6.61673 4.1967 10.2547 2.38186 14.5111C0.56703 18.7675 0.0921867 23.4511 1.01738 27.9696C1.94257 32.4882 4.22625 36.6387 7.57963 39.8964C10.933 43.1541 15.2055 45.3726 19.8567 46.2714C24.508 47.1702 29.3292 46.7089 33.7105 44.9459C38.0919 43.1828 41.8368 40.1972 44.4715 36.3666C47.1062 32.5359 48.5125 28.0323 48.5125 23.4252C48.5058 17.2494 45.9774 11.3283 41.4821 6.96126C36.9869 2.59424 30.8919 0.137992 24.5346 0.13147ZM24.5346 43.1354C20.5218 43.1354 16.5991 41.9794 13.2626 39.8136C9.9261 37.6478 7.3256 34.5695 5.78997 30.968C4.25435 27.3664 3.85256 23.4034 4.63541 19.58C5.41827 15.7566 7.35061 12.2446 10.1881 9.48809C13.0256 6.73158 16.6407 4.85437 20.5764 4.09385C24.5121 3.33333 28.5915 3.72366 32.2989 5.21547C36.0062 6.70728 39.1749 9.23358 41.4043 12.4749C43.6337 15.7162 44.8236 19.527 44.8236 23.4252C44.8175 28.6509 42.678 33.6608 38.8744 37.3559C35.0707 41.0509 29.9137 43.1294 24.5346 43.1354ZM35.6013 23.4252C35.6013 23.9005 35.407 24.3562 35.0611 24.6923C34.7152 25.0283 34.2461 25.2171 33.7569 25.2171H19.7644L23.9951 29.3248C24.1665 29.4913 24.3024 29.689 24.3951 29.9065C24.4879 30.124 24.5356 30.3571 24.5356 30.5926C24.5356 30.828 24.4879 31.0611 24.3951 31.2786C24.3024 31.4962 24.1665 31.6938 23.9951 31.8603C23.8237 32.0268 23.6203 32.1588 23.3964 32.2489C23.1725 32.339 22.9325 32.3854 22.6901 32.3854C22.4478 32.3854 22.2078 32.339 21.9839 32.2489C21.76 32.1588 21.5565 32.0268 21.3852 31.8603L14.0074 24.693C13.8359 24.5266 13.6998 24.3289 13.607 24.1114C13.5142 23.8939 13.4664 23.6607 13.4664 23.4252C13.4664 23.1898 13.5142 22.9566 13.607 22.7391C13.6998 22.5216 13.8359 22.3239 14.0074 22.1575L21.3852 14.9902C21.7313 14.654 22.2007 14.4651 22.6901 14.4651C23.1796 14.4651 23.649 14.654 23.9951 14.9902C24.3412 15.3264 24.5356 15.7824 24.5356 16.2579C24.5356 16.7334 24.3412 17.1894 23.9951 17.5257L19.7644 21.6334H33.7569C34.2461 21.6334 34.7152 21.8222 35.0611 22.1582C35.407 22.4943 35.6013 22.95 35.6013 23.4252Z" fill="#EBEBEB"/>
</svg>
