<svg width="50" height="50" viewBox="0 0 50 50" fill="none" xmlns="http://www.w3.org/2000/svg">
<path d="M45.8333 3.84615H39.5833V1.92308C39.5833 1.41305 39.3638 0.923903 38.9731 0.563256C38.5824 0.202609 38.0525 0 37.5 0C36.9475 0 36.4176 0.202609 36.0269 0.563256C35.6362 0.923903 35.4167 1.41305 35.4167 1.92308V3.84615H14.5833V1.92308C14.5833 1.41305 14.3638 0.923903 13.9731 0.563256C13.5824 0.202609 13.0525 0 12.5 0C11.9475 0 11.4176 0.202609 11.0269 0.563256C10.6362 0.923903 10.4167 1.41305 10.4167 1.92308V3.84615H4.16667C3.0616 3.84615 2.00179 4.25137 1.22039 4.97267C0.438987 5.69396 0 6.67224 0 7.69231V46.1538C0 47.1739 0.438987 48.1522 1.22039 48.8735C2.00179 49.5948 3.0616 50 4.16667 50H45.8333C46.9384 50 47.9982 49.5948 48.7796 48.8735C49.561 48.1522 50 47.1739 50 46.1538V7.69231C50 6.67224 49.561 5.69396 48.7796 4.97267C47.9982 4.25137 46.9384 3.84615 45.8333 3.84615ZM10.4167 7.69231V9.61538C10.4167 10.1254 10.6362 10.6146 11.0269 10.9752C11.4176 11.3359 11.9475 11.5385 12.5 11.5385C13.0525 11.5385 13.5824 11.3359 13.9731 10.9752C14.3638 10.6146 14.5833 10.1254 14.5833 9.61538V7.69231H35.4167V9.61538C35.4167 10.1254 35.6362 10.6146 36.0269 10.9752C36.4176 11.3359 36.9475 11.5385 37.5 11.5385C38.0525 11.5385 38.5824 11.3359 38.9731 10.9752C39.3638 10.6146 39.5833 10.1254 39.5833 9.61538V7.69231H45.8333V15.3846H4.16667V7.69231H10.4167ZM45.8333 46.1538H4.16667V19.2308H45.8333V46.1538ZM28.125 27.8846C28.125 28.4551 27.9417 29.0128 27.5983 29.4872C27.255 29.9616 26.7669 30.3313 26.1959 30.5497C25.6249 30.768 24.9965 30.8251 24.3903 30.7138C23.7842 30.6025 23.2273 30.3278 22.7903 29.9243C22.3533 29.5209 22.0556 29.0069 21.935 28.4474C21.8145 27.8878 21.8764 27.3078 22.1129 26.7807C22.3494 26.2536 22.7499 25.8031 23.2638 25.4861C23.7777 25.1692 24.3819 25 25 25C25.8288 25 26.6237 25.3039 27.2097 25.8449C27.7958 26.3859 28.125 27.1196 28.125 27.8846ZM39.5833 27.8846C39.5833 28.4551 39.4001 29.0128 39.0567 29.4872C38.7133 29.9616 38.2252 30.3313 37.6542 30.5497C37.0832 30.768 36.4549 30.8251 35.8487 30.7138C35.2425 30.6025 34.6857 30.3278 34.2486 29.9243C33.8116 29.5209 33.514 29.0069 33.3934 28.4474C33.2728 27.8878 33.3347 27.3078 33.5712 26.7807C33.8077 26.2536 34.2083 25.8031 34.7222 25.4861C35.2361 25.1692 35.8403 25 36.4583 25C37.2871 25 38.082 25.3039 38.668 25.8449C39.2541 26.3859 39.5833 27.1196 39.5833 27.8846ZM16.6667 37.5C16.6667 38.0705 16.4834 38.6282 16.14 39.1026C15.7966 39.577 15.3086 39.9467 14.7376 40.165C14.1665 40.3834 13.5382 40.4405 12.932 40.3292C12.3258 40.2179 11.769 39.9431 11.332 39.5397C10.8949 39.1363 10.5973 38.6223 10.4767 38.0628C10.3561 37.5032 10.418 36.9232 10.6545 36.3961C10.8911 35.869 11.2916 35.4185 11.8055 35.1015C12.3194 34.7846 12.9236 34.6154 13.5417 34.6154C14.3705 34.6154 15.1653 34.9193 15.7514 35.4603C16.3374 36.0012 16.6667 36.735 16.6667 37.5ZM28.125 37.5C28.125 38.0705 27.9417 38.6282 27.5983 39.1026C27.255 39.577 26.7669 39.9467 26.1959 40.165C25.6249 40.3834 24.9965 40.4405 24.3903 40.3292C23.7842 40.2179 23.2273 39.9431 22.7903 39.5397C22.3533 39.1363 22.0556 38.6223 21.935 38.0628C21.8145 37.5032 21.8764 36.9232 22.1129 36.3961C22.3494 35.869 22.7499 35.4185 23.2638 35.1015C23.7777 34.7846 24.3819 34.6154 25 34.6154C25.8288 34.6154 26.6237 34.9193 27.2097 35.4603C27.7958 36.0012 28.125 36.735 28.125 37.5ZM39.5833 37.5C39.5833 38.0705 39.4001 38.6282 39.0567 39.1026C38.7133 39.577 38.2252 39.9467 37.6542 40.165C37.0832 40.3834 36.4549 40.4405 35.8487 40.3292C35.2425 40.2179 34.6857 39.9431 34.2486 39.5397C33.8116 39.1363 33.514 38.6223 33.3934 38.0628C33.2728 37.5032 33.3347 36.9232 33.5712 36.3961C33.8077 35.869 34.2083 35.4185 34.7222 35.1015C35.2361 34.7846 35.8403 34.6154 36.4583 34.6154C37.2871 34.6154 38.082 34.9193 38.668 35.4603C39.2541 36.0012 39.5833 36.735 39.5833 37.5Z" fill="#449B70"/>
</svg>
