<svg width="50" height="48" viewBox="0 0 50 48" fill="none" xmlns="http://www.w3.org/2000/svg">
<path d="M49.2856 39.3814L29.7665 2.93293C29.2787 2.03996 28.5824 1.29955 27.7465 0.785095C26.9106 0.27064 25.9642 0 25.0011 0C24.038 0 23.0916 0.27064 22.2557 0.785095C21.4198 1.29955 20.7235 2.03996 20.2357 2.93293L0.716644 39.3814C0.247328 40.2451 0 41.2274 0 42.2277C0 43.2281 0.247328 44.2104 0.716644 45.0741C1.19816 45.9725 1.8933 46.7169 2.73074 47.231C3.56818 47.7452 4.51775 48.0105 5.48202 47.9997H44.5202C45.4837 48.0096 46.4324 47.7439 47.269 47.2298C48.1055 46.7157 48.8 45.9718 49.2811 45.0741C49.7511 44.2108 49.9992 43.2287 50 42.2284C50.0008 41.2281 49.7542 40.2455 49.2856 39.3814ZM46.1898 43.1517C46.0196 43.4638 45.7753 43.7217 45.4819 43.8988C45.1885 44.0759 44.8566 44.166 44.5202 44.1597H5.48202C5.14561 44.166 4.81369 44.0759 4.52031 43.8988C4.22693 43.7217 3.98263 43.4638 3.81247 43.1517C3.65833 42.8711 3.57703 42.5512 3.57703 42.2253C3.57703 41.8995 3.65833 41.5795 3.81247 41.299L23.3316 4.85051C23.5052 4.53989 23.7506 4.28286 24.0439 4.10441C24.3372 3.92597 24.6685 3.83219 25.0056 3.83219C25.3426 3.83219 25.6739 3.92597 25.9673 4.10441C26.2606 4.28286 26.506 4.53989 26.6796 4.85051L46.1987 41.299C46.3515 41.5804 46.4312 41.9008 46.4297 42.2267C46.4281 42.5525 46.3452 42.872 46.1898 43.1517ZM23.2155 28.7999V19.2C23.2155 18.6908 23.4036 18.2024 23.7385 17.8423C24.0734 17.4823 24.5275 17.28 25.0011 17.28C25.4747 17.28 25.9289 17.4823 26.2637 17.8423C26.5986 18.2024 26.7867 18.6908 26.7867 19.2V28.7999C26.7867 29.3091 26.5986 29.7974 26.2637 30.1575C25.9289 30.5176 25.4747 30.7199 25.0011 30.7199C24.5275 30.7199 24.0734 30.5176 23.7385 30.1575C23.4036 29.7974 23.2155 29.3091 23.2155 28.7999ZM27.6795 37.4398C27.6795 38.0094 27.5225 38.5662 27.2281 39.0398C26.9338 39.5134 26.5155 39.8826 26.0261 40.1005C25.5367 40.3185 24.9981 40.3755 24.4786 40.2644C23.959 40.1533 23.4818 39.879 23.1072 39.4762C22.7326 39.0735 22.4775 38.5603 22.3741 38.0016C22.2708 37.443 22.3238 36.8639 22.5266 36.3377C22.7293 35.8114 23.0726 35.3616 23.5131 35.0452C23.9535 34.7287 24.4714 34.5598 25.0011 34.5598C25.7115 34.5598 26.3927 34.8632 26.8951 35.4033C27.3974 35.9434 27.6795 36.676 27.6795 37.4398Z" fill="#449B70"/>
</svg>