<svg width="166" height="229" viewBox="0 0 166 229" fill="none" xmlns="http://www.w3.org/2000/svg">
<path d="M164.223 22.2163H1.77665C0.795433 22.2163 0 22.9814 0 23.9253V227.291C0 228.235 0.795433 229 1.77665 229H164.223C165.205 229 166 228.235 166 227.291V23.9253C166 22.9814 165.205 22.2163 164.223 22.2163Z" fill="url(#paint0_linear_257_339)"/>
<path d="M148.445 41.8694H17.5515C16.5703 41.8694 15.7749 42.6345 15.7749 43.5783V207.638C15.7749 208.582 16.5703 209.347 17.5515 209.347H148.445C149.426 209.347 150.221 208.582 150.221 207.638V43.5783C150.221 42.6345 149.426 41.8694 148.445 41.8694Z" fill="white"/>
<path fill-rule="evenodd" clip-rule="evenodd" d="M99.4373 15.8078C99.4373 18.0893 98.9345 20.258 98.0302 22.2164H87.889C89.9357 20.7706 91.2647 18.4379 91.2647 15.8078C91.2647 11.4192 87.5657 7.8612 83.0033 7.8612C78.4408 7.8612 74.7418 11.4192 74.7418 15.8078C74.7418 18.4379 76.0708 20.7706 78.1175 22.2164H67.9746C67.0721 20.258 66.5693 18.0893 66.5693 15.8078C66.5693 7.07678 73.9264 0 83.0033 0C92.0784 0 99.4373 7.07678 99.4373 15.8078ZM67.9746 22.2164C70.5312 27.7534 76.2982 31.6157 83.0033 31.6157C89.7066 31.6157 95.4736 27.7534 98.0302 22.2164H101.315C109.6 22.2164 116.315 28.9321 116.315 37.2164V38.8321C116.315 47.1164 109.6 53.8321 101.315 53.8321H64.6911C56.4068 53.8321 49.6911 47.1164 49.6911 38.8321V37.2164C49.6911 28.9322 56.4068 22.2164 64.6911 22.2164H67.9746ZM78.1175 22.2164H87.889C86.521 23.1837 84.8314 23.7545 83.0033 23.7545C81.1751 23.7545 79.4855 23.1837 78.1175 22.2164Z" fill="url(#paint1_linear_257_339)"/>
<path fill-rule="evenodd" clip-rule="evenodd" d="M124.136 78.1333C125.08 78.1333 125.845 78.8984 125.845 79.8423C125.845 80.7861 125.08 81.5512 124.136 81.5512H32.397C31.4532 81.5512 30.6881 80.7861 30.6881 79.8423C30.6881 78.8984 31.4532 78.1333 32.397 78.1333H124.136ZM124.136 92.967C125.08 92.967 125.845 93.7321 125.845 94.676C125.845 95.6198 125.08 96.3849 124.136 96.3849H32.397C31.4532 96.3849 30.6881 95.6198 30.6881 94.676C30.6881 93.7321 31.4532 92.967 32.397 92.967H124.136ZM93.8641 112.791C94.8079 112.791 95.5731 112.026 95.5731 111.082C95.5731 110.138 94.8079 109.373 93.8641 109.373H32.397C31.4532 109.373 30.6881 110.138 30.6881 111.082C30.6881 112.026 31.4532 112.791 32.397 112.791H93.8641ZM117.556 125.779C118.5 125.779 119.265 126.544 119.265 127.488C119.265 128.432 118.5 129.197 117.556 129.197H32.397C31.4532 129.197 30.6881 128.432 30.6881 127.488C30.6881 126.544 31.4532 125.779 32.397 125.779H117.556ZM133.912 144.029C134.855 144.029 135.621 143.264 135.621 142.32C135.621 141.376 134.855 140.611 133.912 140.611H32.397C31.4532 140.611 30.6881 141.376 30.6881 142.32C30.6881 143.264 31.4532 144.029 32.397 144.029H133.912Z" fill="#5BB689"/>
<defs>
<linearGradient id="paint0_linear_257_339" x1="83" y1="22.2163" x2="83" y2="229" gradientUnits="userSpaceOnUse">
<stop offset="0.293265" stop-color="#5BB689"/>
<stop offset="1" stop-color="#4AA075"/>
</linearGradient>
<linearGradient id="paint1_linear_257_339" x1="83.0033" y1="0" x2="83.0033" y2="53.8321" gradientUnits="userSpaceOnUse">
<stop offset="0.293265" stop-color="#5BB689"/>
<stop offset="1" stop-color="#4AA075"/>
</linearGradient>
</defs>
</svg>
