<svg width="28" height="34" viewBox="0 0 28 34" fill="none" xmlns="http://www.w3.org/2000/svg">
<path d="M14 18.6667C13.5579 18.6667 13.134 18.8423 12.8214 19.1549C12.5089 19.4674 12.3333 19.8913 12.3333 20.3334V25.3334C12.3333 25.7754 12.5089 26.1993 12.8214 26.5119C13.134 26.8244 13.5579 27 14 27C14.442 27 14.8659 26.8244 15.1785 26.5119C15.491 26.1993 15.6666 25.7754 15.6666 25.3334V20.3334C15.6666 19.8913 15.491 19.4674 15.1785 19.1549C14.8659 18.8423 14.442 18.6667 14 18.6667ZM22.3333 12V8.66671C22.3333 6.45657 21.4553 4.33695 19.8925 2.77415C18.3297 1.21135 16.2101 0.333374 14 0.333374C11.7898 0.333374 9.67021 1.21135 8.1074 2.77415C6.5446 4.33695 5.66663 6.45657 5.66663 8.66671V12C4.34054 12 3.06877 12.5268 2.13109 13.4645C1.19341 14.4022 0.666626 15.674 0.666626 17V28.6667C0.666626 29.9928 1.19341 31.2646 2.13109 32.2022C3.06877 33.1399 4.34054 33.6667 5.66663 33.6667H22.3333C23.6594 33.6667 24.9311 33.1399 25.8688 32.2022C26.8065 31.2646 27.3333 29.9928 27.3333 28.6667V17C27.3333 15.674 26.8065 14.4022 25.8688 13.4645C24.9311 12.5268 23.6594 12 22.3333 12ZM8.99996 8.66671C8.99996 7.34062 9.52674 6.06886 10.4644 5.13117C11.4021 4.19349 12.6739 3.66671 14 3.66671C15.326 3.66671 16.5978 4.19349 17.5355 5.13117C18.4732 6.06886 19 7.34062 19 8.66671V12H8.99996V8.66671ZM24 28.6667C24 29.1087 23.8244 29.5327 23.5118 29.8452C23.1992 30.1578 22.7753 30.3334 22.3333 30.3334H5.66663C5.2246 30.3334 4.80068 30.1578 4.48811 29.8452C4.17555 29.5327 3.99996 29.1087 3.99996 28.6667V17C3.99996 16.558 4.17555 16.1341 4.48811 15.8215C4.80068 15.509 5.2246 15.3334 5.66663 15.3334H22.3333C22.7753 15.3334 23.1992 15.509 23.5118 15.8215C23.8244 16.1341 24 16.558 24 17V28.6667Z" fill="#737373"/>
</svg>
