<svg width="33" height="34" viewBox="0 0 33 34" fill="none" xmlns="http://www.w3.org/2000/svg">
<path d="M31.625 5.23077H24.75V3.92308C24.75 2.88261 24.3154 1.88476 23.5418 1.14904C22.7682 0.413323 21.719 0 20.625 0H12.375C11.281 0 10.2318 0.413323 9.45818 1.14904C8.6846 1.88476 8.25 2.88261 8.25 3.92308V5.23077H1.375C1.01033 5.23077 0.660591 5.36854 0.402728 5.61378C0.144866 5.85902 0 6.19164 0 6.53846C0 6.88528 0.144866 7.2179 0.402728 7.46314C0.660591 7.70838 1.01033 7.84615 1.375 7.84615H2.75V31.3846C2.75 32.0783 3.03973 32.7435 3.55546 33.234C4.07118 33.7245 4.77065 34 5.5 34H27.5C28.2293 34 28.9288 33.7245 29.4445 33.234C29.9603 32.7435 30.25 32.0783 30.25 31.3846V7.84615H31.625C31.9897 7.84615 32.3394 7.70838 32.5973 7.46314C32.8551 7.2179 33 6.88528 33 6.53846C33 6.19164 32.8551 5.85902 32.5973 5.61378C32.3394 5.36854 31.9897 5.23077 31.625 5.23077ZM11 3.92308C11 3.57626 11.1449 3.24364 11.4027 2.9984C11.6606 2.75316 12.0103 2.61538 12.375 2.61538H20.625C20.9897 2.61538 21.3394 2.75316 21.5973 2.9984C21.8551 3.24364 22 3.57626 22 3.92308V5.23077H11V3.92308ZM27.5 31.3846H5.5V7.84615H27.5V31.3846ZM13.75 14.3846V24.8462C13.75 25.193 13.6051 25.5256 13.3473 25.7708C13.0894 26.0161 12.7397 26.1538 12.375 26.1538C12.0103 26.1538 11.6606 26.0161 11.4027 25.7708C11.1449 25.5256 11 25.193 11 24.8462V14.3846C11 14.0378 11.1449 13.7052 11.4027 13.4599C11.6606 13.2147 12.0103 13.0769 12.375 13.0769C12.7397 13.0769 13.0894 13.2147 13.3473 13.4599C13.6051 13.7052 13.75 14.0378 13.75 14.3846ZM22 14.3846V24.8462C22 25.193 21.8551 25.5256 21.5973 25.7708C21.3394 26.0161 20.9897 26.1538 20.625 26.1538C20.2603 26.1538 19.9106 26.0161 19.6527 25.7708C19.3949 25.5256 19.25 25.193 19.25 24.8462V14.3846C19.25 14.0378 19.3949 13.7052 19.6527 13.4599C19.9106 13.2147 20.2603 13.0769 20.625 13.0769C20.9897 13.0769 21.3394 13.2147 21.5973 13.4599C21.8551 13.7052 22 14.0378 22 14.3846Z" fill="#ED5B5B"/>
</svg>
