<svg width="20" height="31" viewBox="0 0 20 31" fill="none" xmlns="http://www.w3.org/2000/svg">
<path d="M0.488373 2.40669C0.33354 2.27577 0.210721 2.12036 0.126926 1.94931C0.0431311 1.77827 -6.71489e-08 1.59494 -6.71489e-08 1.4098C-6.71489e-08 1.22467 0.0431311 1.04134 0.126926 0.870295C0.210721 0.69925 0.33354 0.543834 0.488373 0.412922C0.643206 0.28201 0.82702 0.178166 1.02932 0.107316C1.23162 0.0364672 1.44844 -4.62418e-07 1.66741 -4.62418e-07C1.88638 -4.62418e-07 2.1032 0.0364672 2.3055 0.107316C2.5078 0.178166 2.69161 0.28201 2.84644 0.412922L19.5112 14.5031C19.6662 14.634 19.7891 14.7894 19.873 14.9604C19.9568 15.1315 20 15.3148 20 15.5C20 15.6852 19.9568 15.8685 19.873 16.0396C19.7891 16.2106 19.6662 16.366 19.5112 16.4969L2.84644 30.5871C2.53374 30.8515 2.10963 31 1.66741 31C1.22518 31 0.801072 30.8515 0.488373 30.5871C0.175673 30.3227 -5.84316e-08 29.9641 -6.71489e-08 29.5902C-7.58662e-08 29.2163 0.175673 28.8577 0.488373 28.5933L15.9762 15.5L0.488373 2.40669Z" fill="white"/>
</svg>
