<svg width="56" height="56" viewBox="0 0 56 56" fill="none" xmlns="http://www.w3.org/2000/svg">
<path d="M55.8356 27.1753C55.6727 26.7818 55.3967 26.4453 55.0425 26.2086C54.6884 25.9719 54.272 25.8455 53.846 25.8454H43.0772V10.7689C43.0772 10.1977 42.8503 9.64987 42.4464 9.24595C42.0424 8.84204 41.4946 8.61512 40.9234 8.61512H15.0781C14.5069 8.61512 13.9591 8.84204 13.5552 9.24595C13.1513 9.64987 12.9243 10.1977 12.9243 10.7689V25.8454H2.15547C1.72925 25.845 1.31251 25.9712 0.95801 26.2078C0.603512 26.4444 0.327196 26.7809 0.164042 27.1747C0.000888419 27.5685 -0.0417663 28.0018 0.041478 28.4198C0.124722 28.8378 0.330122 29.2217 0.631675 29.523L26.477 55.3683C26.677 55.5686 26.9145 55.7274 27.176 55.8358C27.4375 55.9442 27.7177 56 28.0008 56C28.2838 56 28.5641 55.9442 28.8255 55.8358C29.087 55.7274 29.3245 55.5686 29.5246 55.3683L55.3698 29.523C55.6709 29.2216 55.8759 28.8377 55.9588 28.4198C56.0417 28.0019 55.9988 27.5688 55.8356 27.1753ZM28.0008 50.7996L7.35414 30.1529H15.0781C15.6493 30.1529 16.1971 29.926 16.6011 29.5221C17.005 29.1182 17.2319 28.5704 17.2319 27.9992V12.9227H38.7696V27.9992C38.7696 28.5704 38.9965 29.1182 39.4004 29.5221C39.8044 29.926 40.3522 30.1529 40.9234 30.1529H48.6474L28.0008 50.7996ZM12.9243 2.15378C12.9243 1.58256 13.1513 1.03474 13.5552 0.630828C13.9591 0.226916 14.5069 0 15.0781 0H40.9234C41.4946 0 42.0424 0.226916 42.4464 0.630828C42.8503 1.03474 43.0772 1.58256 43.0772 2.15378C43.0772 2.725 42.8503 3.27282 42.4464 3.67673C42.0424 4.08065 41.4946 4.30756 40.9234 4.30756H15.0781C14.5069 4.30756 13.9591 4.08065 13.5552 3.67673C13.1513 3.27282 12.9243 2.725 12.9243 2.15378Z" fill="#EDC671"/>
</svg>
