<svg width="56" height="56" viewBox="0 0 56 56" fill="none" xmlns="http://www.w3.org/2000/svg">
<path d="M0.16441 28.8247C0.327347 29.2182 0.603333 29.5547 0.957466 29.7914C1.3116 30.0281 1.72799 30.1545 2.15396 30.1546H12.9228V45.2311C12.9228 45.8023 13.1497 46.3501 13.5536 46.754C13.9576 47.158 14.5054 47.3849 15.0766 47.3849H40.9219C41.4931 47.3849 42.0409 47.158 42.4448 46.754C42.8487 46.3501 43.0757 45.8023 43.0757 45.2311V30.1546H53.8445C54.2708 30.155 54.6875 30.0288 55.042 29.7922C55.3965 29.5556 55.6728 29.2191 55.836 28.8253C55.9991 28.4315 56.0418 27.9982 55.9585 27.5802C55.8753 27.1622 55.6699 26.7783 55.3683 26.477L29.523 0.631668C29.323 0.431419 29.0855 0.272556 28.824 0.164169C28.5625 0.0557823 28.2823 -3.8147e-06 27.9992 -3.8147e-06C27.7162 -3.8147e-06 27.4359 0.0557823 27.1745 0.164169C26.913 0.272556 26.6755 0.431419 26.4754 0.631668L0.630161 26.477C0.329052 26.7784 0.124081 27.1623 0.0411758 27.5802C-0.041729 27.9981 0.00115967 28.4312 0.16441 28.8247ZM27.9992 5.20038L48.6459 25.8471H40.9219C40.3507 25.8471 39.8029 26.074 39.3989 26.4779C38.995 26.8818 38.7681 27.4296 38.7681 28.0008V43.0773H17.2304V28.0008C17.2304 27.4296 17.0035 26.8818 16.5996 26.4779C16.1956 26.074 15.6478 25.8471 15.0766 25.8471H7.35263L27.9992 5.20038ZM43.0757 53.8462C43.0757 54.4174 42.8487 54.9653 42.4448 55.3692C42.0409 55.7731 41.4931 56 40.9219 56H15.0766C14.5054 56 13.9576 55.7731 13.5536 55.3692C13.1497 54.9653 12.9228 54.4174 12.9228 53.8462C12.9228 53.275 13.1497 52.7272 13.5536 52.3233C13.9576 51.9194 14.5054 51.6924 15.0766 51.6924H40.9219C41.4931 51.6924 42.0409 51.9194 42.4448 52.3233C42.8487 52.7272 43.0757 53.275 43.0757 53.8462Z" fill="#ED7171"/>
</svg>