<svg width="37" height="32" viewBox="0 0 37 32" fill="none" xmlns="http://www.w3.org/2000/svg">
<path d="M16.8657 8.10665C17.4065 8.03496 17.9528 7.9993 18.4999 7.99998C23.4024 7.99998 28.012 11.0533 30.6945 16C30.2842 16.7528 29.8208 17.483 29.307 18.1866C29.1438 18.4051 29.0581 18.66 29.0603 18.92C29.0637 19.211 29.1771 19.493 29.3832 19.723C29.5893 19.953 29.8767 20.1185 30.2017 20.194C30.5266 20.2695 30.8712 20.2511 31.1828 20.1414C31.4945 20.0318 31.7561 19.8369 31.9278 19.5866C32.6461 18.6106 33.27 17.5849 33.7932 16.52C33.8759 16.3536 33.9186 16.1744 33.9186 15.9933C33.9186 15.8122 33.8759 15.633 33.7932 15.4666C30.679 9.21332 24.8207 5.33332 18.4999 5.33332C17.7763 5.33016 17.0539 5.38371 16.3415 5.49332C16.1391 5.52308 15.9454 5.58704 15.7715 5.68155C15.5977 5.77606 15.447 5.89926 15.3282 6.04412C15.2094 6.18898 15.1247 6.35266 15.079 6.52582C15.0333 6.69898 15.0275 6.87822 15.062 7.05332C15.0964 7.22841 15.1703 7.39593 15.2796 7.54631C15.3889 7.69668 15.5313 7.82697 15.6988 7.92974C15.8663 8.0325 16.0556 8.10572 16.2558 8.14523C16.456 8.18474 16.6633 8.18975 16.8657 8.15998V8.10665ZM5.71946 3.05332C5.57572 2.929 5.40507 2.83038 5.21726 2.7631C5.02945 2.69582 4.82816 2.66119 4.62488 2.66119C4.4216 2.66119 4.2203 2.69582 4.03249 2.7631C3.84469 2.83038 3.67404 2.929 3.5303 3.05332C3.23999 3.30439 3.0769 3.64491 3.0769 3.99998C3.0769 4.35505 3.23999 4.69558 3.5303 4.94665L8.30946 9.06665C6.12889 10.882 4.39341 13.0586 3.20655 15.4666C3.12166 15.6349 3.07784 15.8164 3.07784 16C3.07784 16.1835 3.12166 16.3651 3.20655 16.5333C6.32071 22.7866 12.179 26.6666 18.4999 26.6666C21.2704 26.6501 23.9755 25.9366 26.2853 24.6133L31.2803 28.9466C31.4236 29.0716 31.5941 29.1708 31.782 29.2385C31.9699 29.3062 32.1714 29.341 32.3749 29.341C32.5784 29.341 32.7799 29.3062 32.9678 29.2385C33.1556 29.1708 33.3261 29.0716 33.4695 28.9466C33.614 28.8227 33.7287 28.6752 33.8069 28.5128C33.8852 28.3503 33.9255 28.176 33.9255 28C33.9255 27.824 33.8852 27.6497 33.8069 27.4872C33.7287 27.3247 33.614 27.1773 33.4695 27.0533L5.71946 3.05332ZM15.5245 15.3066L19.3015 18.5733C19.041 18.6379 18.7709 18.6694 18.4999 18.6666C17.6821 18.6666 16.8979 18.3857 16.3196 17.8856C15.7414 17.3855 15.4165 16.7072 15.4165 16C15.4134 15.7656 15.4497 15.532 15.5245 15.3066ZM18.4999 24C13.5974 24 8.9878 20.9466 6.32071 16C7.31677 14.0983 8.73045 12.3821 10.4832 10.9466L13.212 13.3333C12.571 14.345 12.3266 15.5092 12.5155 16.6513C12.7044 17.7933 13.3164 18.8515 14.2596 19.6673C15.2028 20.483 16.4264 21.0123 17.7468 21.1756C19.0673 21.339 20.4134 21.1277 21.5832 20.5733L24.0345 22.6666C22.3557 23.5212 20.4477 23.9808 18.4999 24Z" fill="#737373" fill-opacity="0.66"/>
</svg>
