<svg width="34" height="34" viewBox="0 0 34 34" fill="none" xmlns="http://www.w3.org/2000/svg">
<path d="M31.0533 19.2087C28.1916 12.5646 22.8083 8.44208 17 8.44208C11.1916 8.44208 5.80831 12.5646 2.94664 19.2087C2.86863 19.3875 2.82837 19.5804 2.82837 19.7754C2.82837 19.9704 2.86863 20.1633 2.94664 20.3421C5.80831 26.9862 11.1916 31.1087 17 31.1087C22.8083 31.1087 28.1916 26.9862 31.0533 20.3421C31.1313 20.1633 31.1716 19.9704 31.1716 19.7754C31.1716 19.5804 31.1313 19.3875 31.0533 19.2087ZM17 28.2754C12.5091 28.2754 8.25914 25.0312 5.80831 19.7754C8.25914 14.5196 12.5091 11.2754 17 11.2754C21.4908 11.2754 25.7408 14.5196 28.1916 19.7754C25.7408 25.0312 21.4908 28.2754 17 28.2754ZM17 14.1087C15.8792 14.1087 14.7836 14.4411 13.8517 15.0638C12.9199 15.6864 12.1936 16.5714 11.7647 17.6069C11.3358 18.6423 11.2235 19.7817 11.4422 20.8809C11.6608 21.9801 12.2005 22.9899 12.993 23.7824C13.7855 24.5748 14.7952 25.1145 15.8945 25.3332C16.9937 25.5518 18.1331 25.4396 19.1685 25.0107C20.204 24.5818 21.089 23.8555 21.7116 22.9236C22.3343 21.9918 22.6666 20.8962 22.6666 19.7754C22.6666 18.2725 22.0696 16.8312 21.0069 15.7685C19.9442 14.7058 18.5029 14.1087 17 14.1087ZM17 22.6087C16.4396 22.6087 15.8918 22.4426 15.4259 22.1312C14.9599 21.8199 14.5968 21.3774 14.3823 20.8597C14.1679 20.342 14.1118 19.7723 14.2211 19.2227C14.3304 18.673 14.6003 18.1682 14.9965 17.7719C15.3928 17.3757 15.8976 17.1058 16.4472 16.9965C16.9968 16.8872 17.5665 16.9433 18.0842 17.1578C18.602 17.3722 19.0445 17.7354 19.3558 18.2013C19.6671 18.6672 19.8333 19.215 19.8333 19.7754C19.8333 20.5269 19.5348 21.2475 19.0034 21.7789C18.4721 22.3102 17.7514 22.6087 17 22.6087Z" fill="#737373" fill-opacity="0.66"/>
</svg>