<svg width="30" height="30" viewBox="0 0 30 30" fill="none" xmlns="http://www.w3.org/2000/svg">
<path d="M12.5 17.5C12.1685 17.5 11.8505 17.6317 11.6161 17.8661C11.3817 18.1005 11.25 18.4185 11.25 18.75V26.25C11.25 26.5815 11.3817 26.8995 11.6161 27.1339C11.8505 27.3683 12.1685 27.5 12.5 27.5C12.8315 27.5 13.1495 27.3683 13.3839 27.1339C13.6183 26.8995 13.75 26.5815 13.75 26.25V18.75C13.75 18.4185 13.6183 18.1005 13.3839 17.8661C13.1495 17.6317 12.8315 17.5 12.5 17.5ZM6.25 22.5C5.91848 22.5 5.60054 22.6317 5.36612 22.8661C5.1317 23.1005 5 23.4185 5 23.75V26.25C5 26.5815 5.1317 26.8995 5.36612 27.1339C5.60054 27.3683 5.91848 27.5 6.25 27.5C6.58152 27.5 6.89946 27.3683 7.13388 27.1339C7.3683 26.8995 7.5 26.5815 7.5 26.25V23.75C7.5 23.4185 7.3683 23.1005 7.13388 22.8661C6.89946 22.6317 6.58152 22.5 6.25 22.5ZM25 2.5C24.6685 2.5 24.3505 2.6317 24.1161 2.86612C23.8817 3.10054 23.75 3.41848 23.75 3.75V26.25C23.75 26.5815 23.8817 26.8995 24.1161 27.1339C24.3505 27.3683 24.6685 27.5 25 27.5C25.3315 27.5 25.6495 27.3683 25.8839 27.1339C26.1183 26.8995 26.25 26.5815 26.25 26.25V3.75C26.25 3.41848 26.1183 3.10054 25.8839 2.86612C25.6495 2.6317 25.3315 2.5 25 2.5ZM18.75 11.25C18.4185 11.25 18.1005 11.3817 17.8661 11.6161C17.6317 11.8505 17.5 12.1685 17.5 12.5V26.25C17.5 26.5815 17.6317 26.8995 17.8661 27.1339C18.1005 27.3683 18.4185 27.5 18.75 27.5C19.0815 27.5 19.3995 27.3683 19.6339 27.1339C19.8683 26.8995 20 26.5815 20 26.25V12.5C20 12.1685 19.8683 11.8505 19.6339 11.6161C19.3995 11.3817 19.0815 11.25 18.75 11.25Z" fill="#737373" fill-opacity="0.66"/>
</svg>
