<svg width="50" height="50" viewBox="0 0 50 50" fill="none" xmlns="http://www.w3.org/2000/svg">
<path d="M49.0625 3.125V16.25C49.0625 16.8302 48.832 17.3866 48.4218 17.7968C48.0116 18.207 47.4552 18.4375 46.875 18.4375C46.2948 18.4375 45.7384 18.207 45.3282 17.7968C44.918 17.3866 44.6875 16.8302 44.6875 16.25V8.40508L33.1102 19.9852C32.6997 20.3956 32.143 20.6262 31.5625 20.6262C30.982 20.6262 30.4253 20.3956 30.0148 19.9852C29.6044 19.5747 29.3738 19.018 29.3738 18.4375C29.3738 17.857 29.6044 17.3003 30.0148 16.8898L41.5949 5.3125H33.75C33.1698 5.3125 32.6134 5.08203 32.2032 4.6718C31.793 4.26156 31.5625 3.70516 31.5625 3.125C31.5625 2.54484 31.793 1.98844 32.2032 1.5782C32.6134 1.16797 33.1698 0.9375 33.75 0.9375H46.875C47.4552 0.9375 48.0116 1.16797 48.4218 1.5782C48.832 1.98844 49.0625 2.54484 49.0625 3.125ZM16.8898 30.0148L5.3125 41.5949V33.75C5.3125 33.1698 5.08203 32.6134 4.6718 32.2032C4.26156 31.793 3.70516 31.5625 3.125 31.5625C2.54484 31.5625 1.98844 31.793 1.5782 32.2032C1.16797 32.6134 0.9375 33.1698 0.9375 33.75V46.875C0.9375 47.4552 1.16797 48.0116 1.5782 48.4218C1.98844 48.832 2.54484 49.0625 3.125 49.0625H16.25C16.8302 49.0625 17.3866 48.832 17.7968 48.4218C18.207 48.0116 18.4375 47.4552 18.4375 46.875C18.4375 46.2948 18.207 45.7384 17.7968 45.3282C17.3866 44.918 16.8302 44.6875 16.25 44.6875H8.40508L19.9852 33.1102C20.3956 32.6997 20.6262 32.143 20.6262 31.5625C20.6262 30.982 20.3956 30.4253 19.9852 30.0148C19.5747 29.6044 19.018 29.3738 18.4375 29.3738C17.857 29.3738 17.3003 29.6044 16.8898 30.0148ZM46.875 31.5625C46.2948 31.5625 45.7384 31.793 45.3282 32.2032C44.918 32.6134 44.6875 33.1698 44.6875 33.75V41.5949L33.1102 30.0148C32.6997 29.6044 32.143 29.3738 31.5625 29.3738C30.982 29.3738 30.4253 29.6044 30.0148 30.0148C29.6044 30.4253 29.3738 30.982 29.3738 31.5625C29.3738 32.143 29.6044 32.6997 30.0148 33.1102L41.5949 44.6875H33.75C33.1698 44.6875 32.6134 44.918 32.2032 45.3282C31.793 45.7384 31.5625 46.2948 31.5625 46.875C31.5625 47.4552 31.793 48.0116 32.2032 48.4218C32.6134 48.832 33.1698 49.0625 33.75 49.0625H46.875C47.4552 49.0625 48.0116 48.832 48.4218 48.4218C48.832 48.0116 49.0625 47.4552 49.0625 46.875V33.75C49.0625 33.1698 48.832 32.6134 48.4218 32.2032C48.0116 31.793 47.4552 31.5625 46.875 31.5625ZM8.40508 5.3125H16.25C16.8302 5.3125 17.3866 5.08203 17.7968 4.6718C18.207 4.26156 18.4375 3.70516 18.4375 3.125C18.4375 2.54484 18.207 1.98844 17.7968 1.5782C17.3866 1.16797 16.8302 0.9375 16.25 0.9375H3.125C2.54484 0.9375 1.98844 1.16797 1.5782 1.5782C1.16797 1.98844 0.9375 2.54484 0.9375 3.125V16.25C0.9375 16.8302 1.16797 17.3866 1.5782 17.7968C1.98844 18.207 2.54484 18.4375 3.125 18.4375C3.70516 18.4375 4.26156 18.207 4.6718 17.7968C5.08203 17.3866 5.3125 16.8302 5.3125 16.25V8.40508L16.8898 19.9852C17.3003 20.3956 17.857 20.6262 18.4375 20.6262C19.018 20.6262 19.5747 20.3956 19.9852 19.9852C20.3956 19.5747 20.6262 19.018 20.6262 18.4375C20.6262 17.857 20.3956 17.3003 19.9852 16.8898L8.40508 5.3125Z" fill="black"/>
</svg>
