<svg width="50" height="45" viewBox="0 0 50 45" fill="none" xmlns="http://www.w3.org/2000/svg">
<path d="M44.346 9.375H41.0714V1.875C41.0714 1.37772 40.8833 0.900806 40.5484 0.549175C40.2135 0.197544 39.7593 0 39.2857 0H10.7143C10.2407 0 9.78648 0.197544 9.4516 0.549175C9.11671 0.900806 8.92857 1.37772 8.92857 1.875V9.375H5.65402C2.53571 9.375 0 11.8992 0 15V33.75C0 34.2473 0.188137 34.7242 0.523023 35.0758C0.85791 35.4275 1.31211 35.625 1.78571 35.625H8.92857V43.125C8.92857 43.6223 9.11671 44.0992 9.4516 44.4508C9.78648 44.8025 10.2407 45 10.7143 45H39.2857C39.7593 45 40.2135 44.8025 40.5484 44.4508C40.8833 44.0992 41.0714 43.6223 41.0714 43.125V35.625H48.2143C48.6879 35.625 49.1421 35.4275 49.477 35.0758C49.8119 34.7242 50 34.2473 50 33.75V15C50 11.8992 47.4643 9.375 44.346 9.375ZM12.5 3.75H37.5V9.375H12.5V3.75ZM37.5 41.25H12.5V30H37.5V41.25ZM46.4286 31.875H41.0714V28.125C41.0714 27.6277 40.8833 27.1508 40.5484 26.7992C40.2135 26.4475 39.7593 26.25 39.2857 26.25H10.7143C10.2407 26.25 9.78648 26.4475 9.4516 26.7992C9.11671 27.1508 8.92857 27.6277 8.92857 28.125V31.875H3.57143V15C3.57143 13.9664 4.5067 13.125 5.65402 13.125H44.346C45.4933 13.125 46.4286 13.9664 46.4286 15V31.875ZM41.0714 19.6875C41.0714 20.2438 40.9143 20.7875 40.62 21.25C40.3257 21.7126 39.9073 22.073 39.4179 22.2859C38.9285 22.4988 38.3899 22.5545 37.8703 22.446C37.3507 22.3374 36.8734 22.0696 36.4988 21.6762C36.1242 21.2829 35.8691 20.7818 35.7658 20.2362C35.6624 19.6906 35.7154 19.1251 35.9182 18.6112C36.1209 18.0973 36.4642 17.658 36.9047 17.349C37.3452 17.0399 37.8631 16.875 38.3929 16.875C39.1033 16.875 39.7846 17.1713 40.2869 17.6988C40.7892 18.2262 41.0714 18.9416 41.0714 19.6875Z" fill="#449B70"/>
</svg>