<svg width="45" height="40" viewBox="0 0 45 40" fill="none" xmlns="http://www.w3.org/2000/svg">
<path d="M39.9114 8.33333H36.9643V1.66667C36.9643 1.22464 36.795 0.800716 36.4936 0.488156C36.1922 0.175595 35.7834 0 35.3571 0H9.64286C9.21662 0 8.80783 0.175595 8.50644 0.488156C8.20504 0.800716 8.03571 1.22464 8.03571 1.66667V8.33333H5.08862C2.28214 8.33333 0 10.5771 0 13.3333V30C0 30.442 0.169323 30.866 0.470721 31.1785C0.772119 31.4911 1.1809 31.6667 1.60714 31.6667H8.03571V38.3333C8.03571 38.7754 8.20504 39.1993 8.50644 39.5118C8.80783 39.8244 9.21662 40 9.64286 40H35.3571C35.7834 40 36.1922 39.8244 36.4936 39.5118C36.795 39.1993 36.9643 38.7754 36.9643 38.3333V31.6667H43.3929C43.8191 31.6667 44.2279 31.4911 44.5293 31.1785C44.8307 30.866 45 30.442 45 30V13.3333C45 10.5771 42.7179 8.33333 39.9114 8.33333ZM11.25 3.33333H33.75V8.33333H11.25V3.33333ZM33.75 36.6667H11.25V26.6667H33.75V36.6667ZM41.7857 28.3333H36.9643V25C36.9643 24.558 36.795 24.134 36.4936 23.8215C36.1922 23.5089 35.7834 23.3333 35.3571 23.3333H9.64286C9.21662 23.3333 8.80783 23.5089 8.50644 23.8215C8.20504 24.134 8.03571 24.558 8.03571 25V28.3333H3.21429V13.3333C3.21429 12.4146 4.05603 11.6667 5.08862 11.6667H39.9114C40.944 11.6667 41.7857 12.4146 41.7857 13.3333V28.3333ZM36.9643 17.5C36.9643 17.9945 36.8229 18.4778 36.558 18.8889C36.2931 19.3 35.9166 19.6205 35.4761 19.8097C35.0356 19.9989 34.5509 20.0484 34.0833 19.952C33.6156 19.8555 33.1861 19.6174 32.8489 19.2678C32.5118 18.9181 32.2822 18.4727 32.1892 17.9877C32.0962 17.5028 32.1439 17.0001 32.3264 16.5433C32.5088 16.0865 32.8178 15.696 33.2142 15.4213C33.6107 15.1466 34.0768 15 34.5536 15C35.1929 15 35.8061 15.2634 36.2582 15.7322C36.7103 16.2011 36.9643 16.837 36.9643 17.5Z" fill="#37383A"/>
</svg>
