<svg width="22" height="12" viewBox="0 0 22 12" fill="none" xmlns="http://www.w3.org/2000/svg">
<path d="M21.7076 1.70745L11.7076 11.7074C11.6147 11.8004 11.5044 11.8742 11.383 11.9245C11.2616 11.9748 11.1315 12.0007 11.0001 12.0007C10.8687 12.0007 10.7385 11.9748 10.6171 11.9245C10.4957 11.8742 10.3854 11.8004 10.2926 11.7074L0.292568 1.70745C0.104927 1.51981 -0.000488281 1.26531 -0.000488281 0.999946C-0.000488281 0.734582 0.104927 0.480086 0.292568 0.292445C0.480208 0.104805 0.734704 -0.000610352 1.00007 -0.000610352C1.26543 -0.000610352 1.51993 0.104805 1.70757 0.292445L11.0001 9.5862L20.2926 0.292445C20.3855 0.199535 20.4958 0.125835 20.6172 0.075552C20.7386 0.0252693 20.8687 -0.000610352 21.0001 -0.000610352C21.1315 -0.000610352 21.2616 0.0252693 21.383 0.075552C21.5044 0.125835 21.6147 0.199535 21.7076 0.292445C21.8005 0.385355 21.8742 0.495656 21.9245 0.617049C21.9747 0.738442 22.0006 0.868551 22.0006 0.999946C22.0006 1.13134 21.9747 1.26145 21.9245 1.38284C21.8742 1.50424 21.8005 1.61454 21.7076 1.70745Z" fill="#344253"/>
</svg>

