<svg width="40" height="35" viewBox="0 0 40 35" fill="none" xmlns="http://www.w3.org/2000/svg">
<mask id="path-1-inside-1_274_125" fill="white">
<path d="M40 17.5C40 17.8868 39.8244 18.2577 39.5118 18.5312C39.1993 18.8047 38.7754 18.9583 38.3333 18.9583H21.6667V33.5417C21.6667 33.9284 21.4911 34.2994 21.1785 34.5729C20.866 34.8464 20.442 35 20 35C19.558 35 19.134 34.8464 18.8215 34.5729C18.5089 34.2994 18.3333 33.9284 18.3333 33.5417V18.9583H1.66667C1.22464 18.9583 0.800716 18.8047 0.488156 18.5312C0.175595 18.2577 0 17.8868 0 17.5C0 17.1132 0.175595 16.7423 0.488156 16.4688C0.800716 16.1953 1.22464 16.0417 1.66667 16.0417H18.3333V1.45833C18.3333 1.07156 18.5089 0.700627 18.8215 0.427136C19.134 0.153646 19.558 0 20 0C20.442 0 20.866 0.153646 21.1785 0.427136C21.4911 0.700627 21.6667 1.07156 21.6667 1.45833V16.0417H38.3333C38.7754 16.0417 39.1993 16.1953 39.5118 16.4688C39.8244 16.7423 40 17.1132 40 17.5Z"/>
</mask>
<path d="M40 17.5C40 17.8868 39.8244 18.2577 39.5118 18.5312C39.1993 18.8047 38.7754 18.9583 38.3333 18.9583H21.6667V33.5417C21.6667 33.9284 21.4911 34.2994 21.1785 34.5729C20.866 34.8464 20.442 35 20 35C19.558 35 19.134 34.8464 18.8215 34.5729C18.5089 34.2994 18.3333 33.9284 18.3333 33.5417V18.9583H1.66667C1.22464 18.9583 0.800716 18.8047 0.488156 18.5312C0.175595 18.2577 0 17.8868 0 17.5C0 17.1132 0.175595 16.7423 0.488156 16.4688C0.800716 16.1953 1.22464 16.0417 1.66667 16.0417H18.3333V1.45833C18.3333 1.07156 18.5089 0.700627 18.8215 0.427136C19.134 0.153646 19.558 0 20 0C20.442 0 20.866 0.153646 21.1785 0.427136C21.4911 0.700627 21.6667 1.07156 21.6667 1.45833V16.0417H38.3333C38.7754 16.0417 39.1993 16.1953 39.5118 16.4688C39.8244 16.7423 40 17.1132 40 17.5Z" fill="#449B70"/>
<path d="M21.6667 18.9583V13.9583H16.6667V18.9583H21.6667ZM18.3333 18.9583H23.3333V13.9583H18.3333V18.9583ZM18.3333 16.0417V21.0417H23.3333V16.0417H18.3333ZM20 0V5V0ZM21.6667 16.0417H16.6667V21.0417H21.6667V16.0417ZM40 17.5H35C35 16.3289 35.5373 15.365 36.2193 14.7683L39.5118 18.5312L42.8044 22.2941C44.1115 21.1504 45 19.4447 45 17.5H40ZM39.5118 18.5312L36.2193 14.7683C36.88 14.1902 37.6489 13.9583 38.3333 13.9583V18.9583V23.9583C39.9018 23.9583 41.5186 23.4191 42.8044 22.2941L39.5118 18.5312ZM38.3333 18.9583V13.9583H21.6667V18.9583V23.9583H38.3333V18.9583ZM21.6667 18.9583H16.6667V33.5417H21.6667H26.6667V18.9583H21.6667ZM21.6667 33.5417H16.6667C16.6667 32.3705 17.204 31.4067 17.886 30.81L21.1785 34.5729L24.471 38.3358C25.7781 37.192 26.6667 35.4864 26.6667 33.5417H21.6667ZM21.1785 34.5729L17.886 30.81C18.5466 30.2319 19.3156 30 20 30V35V40C21.5685 40 23.1853 39.4608 24.471 38.3358L21.1785 34.5729ZM20 35V30C20.6844 30 21.4534 30.2319 22.114 30.81L18.8215 34.5729L15.529 38.3358C16.8147 39.4608 18.4315 40 20 40V35ZM18.8215 34.5729L22.114 30.81C22.796 31.4067 23.3333 32.3705 23.3333 33.5417H18.3333H13.3333C13.3333 35.4864 14.2219 37.192 15.529 38.3358L18.8215 34.5729ZM18.3333 33.5417H23.3333V18.9583H18.3333H13.3333V33.5417H18.3333ZM18.3333 18.9583V13.9583H1.66667V18.9583V23.9583H18.3333V18.9583ZM1.66667 18.9583V13.9583C2.3511 13.9583 3.12003 14.1902 3.78068 14.7683L0.488156 18.5312L-2.80437 22.2941C-1.51859 23.4191 0.098179 23.9583 1.66667 23.9583V18.9583ZM0.488156 18.5312L3.78068 14.7683C4.46265 15.365 5 16.3289 5 17.5H0H-5C-5 19.4447 -4.11146 21.1504 -2.80437 22.2941L0.488156 18.5312ZM0 17.5H5C5 18.6712 4.46264 19.635 3.78068 20.2317L0.488156 16.4688L-2.80437 12.7059C-4.11145 13.8496 -5 15.5553 -5 17.5H0ZM0.488156 16.4688L3.78068 20.2317C3.12003 20.8098 2.35111 21.0417 1.66667 21.0417V16.0417V11.0417C0.0981677 11.0417 -1.5186 11.5809 -2.80437 12.7059L0.488156 16.4688ZM1.66667 16.0417V21.0417H18.3333V16.0417V11.0417H1.66667V16.0417ZM18.3333 16.0417H23.3333V1.45833H18.3333H13.3333V16.0417H18.3333ZM18.3333 1.45833H23.3333C23.3333 2.62949 22.796 3.5933 22.114 4.19002L18.8215 0.427136L15.529 -3.33575C14.2219 -2.19205 13.3333 -0.486368 13.3333 1.45833H18.3333ZM18.8215 0.427136L22.114 4.19002C21.4534 4.76808 20.6844 5 20 5V0V-5C18.4315 -5 16.8147 -4.46079 15.529 -3.33575L18.8215 0.427136ZM20 0V5C19.3156 5 18.5466 4.76809 17.886 4.19002L21.1785 0.427136L24.471 -3.33575C23.1853 -4.46079 21.5685 -5 20 -5V0ZM21.1785 0.427136L17.886 4.19002C17.204 3.59329 16.6667 2.62947 16.6667 1.45833H21.6667H26.6667C26.6667 -0.486355 25.7781 -2.19204 24.471 -3.33575L21.1785 0.427136ZM21.6667 1.45833H16.6667V16.0417H21.6667H26.6667V1.45833H21.6667ZM21.6667 16.0417V21.0417H38.3333V16.0417V11.0417H21.6667V16.0417ZM38.3333 16.0417V21.0417C37.6489 21.0417 36.88 20.8098 36.2193 20.2317L39.5118 16.4688L42.8044 12.7059C41.5186 11.5809 39.9018 11.0417 38.3333 11.0417V16.0417ZM39.5118 16.4688L36.2193 20.2317C35.5373 19.635 35 18.6711 35 17.5H40H45C45 15.5553 44.1115 13.8496 42.8044 12.7059L39.5118 16.4688Z" fill="#449B70" mask="url(#path-1-inside-1_274_125)"/>
</svg>