<svg width="105" height="100" viewBox="0 0 105 100" fill="none" xmlns="http://www.w3.org/2000/svg">
<path d="M52.5 0C42.1165 0 31.9662 2.93245 23.3326 8.42652C14.699 13.9206 7.96995 21.7295 3.99635 30.8658C0.0227474 40.0021 -1.01693 50.0555 1.0088 59.7545C3.03452 69.4536 8.03466 78.3627 15.3769 85.3553C22.7192 92.3479 32.0738 97.11 42.2578 99.0392C52.4418 100.968 62.9978 99.9783 72.5909 96.194C82.184 92.4096 90.3834 86.0009 96.1522 77.7785C101.921 69.556 105 59.8891 105 50C104.985 36.7435 99.4493 24.0339 89.6069 14.6601C79.7644 5.28633 66.4194 0.0139991 52.5 0ZM52.5 92.3077C43.714 92.3077 35.1252 89.8264 27.8199 85.1775C20.5145 80.5287 14.8207 73.9212 11.4584 66.1904C8.09617 58.4597 7.21645 49.9531 8.93052 41.7462C10.6446 33.5393 14.8755 26.0008 21.0882 20.0839C27.3008 14.1671 35.2163 10.1377 43.8335 8.50524C52.4507 6.87279 61.3827 7.71062 69.5 10.9128C77.6172 14.115 84.5552 19.5376 89.4364 26.4951C94.3177 33.4526 96.9231 41.6323 96.9231 50C96.9097 61.2168 92.2252 71.9705 83.8971 79.902C75.5691 87.8335 64.2776 92.2949 52.5 92.3077ZM48.4616 53.8461V26.9231C48.4616 25.903 48.887 24.9247 49.6444 24.2034C50.4017 23.4821 51.4289 23.0769 52.5 23.0769C53.5711 23.0769 54.5983 23.4821 55.3556 24.2034C56.113 24.9247 56.5385 25.903 56.5385 26.9231V53.8461C56.5385 54.8662 56.113 55.8445 55.3556 56.5658C54.5983 57.2871 53.5711 57.6923 52.5 57.6923C51.4289 57.6923 50.4017 57.2871 49.6444 56.5658C48.887 55.8445 48.4616 54.8662 48.4616 53.8461ZM58.5577 71.1538C58.5577 72.2949 58.2024 73.4103 57.5368 74.359C56.8712 75.3078 55.9251 76.0472 54.8182 76.4839C53.7113 76.9206 52.4933 77.0348 51.3182 76.8122C50.1431 76.5896 49.0638 76.0401 48.2166 75.2333C47.3694 74.4264 46.7925 73.3985 46.5587 72.2794C46.325 71.1602 46.4449 70.0002 46.9034 68.946C47.3619 67.8919 48.1384 66.9908 49.1345 66.3569C50.1307 65.723 51.3019 65.3846 52.5 65.3846C54.1066 65.3846 55.6474 65.9924 56.7834 67.0744C57.9195 68.1563 58.5577 69.6237 58.5577 71.1538Z" fill="#344253"/>
</svg>
