<svg width="58" height="48" viewBox="0 0 58 48" fill="none" xmlns="http://www.w3.org/2000/svg">
<path d="M57.1713 39.3814L34.5291 2.93293C33.9633 2.03996 33.1556 1.29955 32.186 0.785095C31.2163 0.27064 30.1185 0 29.0013 0C27.8841 0 26.7862 0.27064 25.8166 0.785095C24.847 1.29955 24.0393 2.03996 23.4734 2.93293L0.831307 39.3814C0.286901 40.2451 0 41.2274 0 42.2277C0 43.2281 0.286901 44.2104 0.831307 45.0741C1.38987 45.9725 2.19623 46.7169 3.16766 47.231C4.13908 47.7452 5.24059 48.0105 6.35915 47.9997H51.6434C52.7611 48.0096 53.8615 47.7439 54.832 47.2298C55.8024 46.7157 56.608 45.9718 57.1661 45.0741C57.7113 44.2108 57.9991 43.2287 58 42.2284C58.0009 41.2281 57.7149 40.2455 57.1713 39.3814ZM53.5801 43.1517C53.3827 43.4638 53.0993 43.7217 52.759 43.8988C52.4187 44.0759 52.0337 44.166 51.6434 44.1597H6.35915C5.9689 44.166 5.58388 44.0759 5.24356 43.8988C4.90323 43.7217 4.61985 43.4638 4.42246 43.1517C4.24367 42.8711 4.14935 42.5512 4.14935 42.2253C4.14935 41.8995 4.24367 41.5795 4.42246 41.299L27.0646 4.85051C27.266 4.53989 27.5506 4.28286 27.8909 4.10441C28.2312 3.92597 28.6155 3.83219 29.0065 3.83219C29.3974 3.83219 29.7817 3.92597 30.122 4.10441C30.4623 4.28286 30.747 4.53989 30.9483 4.85051L53.5905 41.299C53.7677 41.5804 53.8602 41.9008 53.8584 42.2267C53.8566 42.5525 53.7605 42.872 53.5801 43.1517ZM26.93 28.7999V19.2C26.93 18.6908 27.1482 18.2024 27.5366 17.8423C27.9251 17.4823 28.4519 17.28 29.0013 17.28C29.5506 17.28 30.0775 17.4823 30.4659 17.8423C30.8544 18.2024 31.0726 18.6908 31.0726 19.2V28.7999C31.0726 29.3091 30.8544 29.7974 30.4659 30.1575C30.0775 30.5176 29.5506 30.7199 29.0013 30.7199C28.4519 30.7199 27.9251 30.5176 27.5366 30.1575C27.1482 29.7974 26.93 29.3091 26.93 28.7999ZM32.1083 37.4398C32.1083 38.0094 31.9261 38.5662 31.5847 39.0398C31.2433 39.5134 30.758 39.8826 30.1903 40.1005C29.6226 40.3185 28.9978 40.3755 28.3951 40.2644C27.7925 40.1533 27.2388 39.879 26.8043 39.4762C26.3698 39.0735 26.0739 38.5603 25.954 38.0016C25.8341 37.443 25.8957 36.8639 26.1308 36.3377C26.366 35.8114 26.7642 35.3616 27.2751 35.0452C27.7861 34.7287 28.3868 34.5598 29.0013 34.5598C29.8253 34.5598 30.6156 34.8632 31.1983 35.4033C31.7809 35.9434 32.1083 36.676 32.1083 37.4398Z" fill="#449B70"/>
</svg>
