<svg width="105" height="100" viewBox="0 0 105 100" fill="none" xmlns="http://www.w3.org/2000/svg">
<path d="M52.5 0.0625C66.1909 0.0624999 79.3291 5.16139 89.1162 14.2539L89.5801 14.6895C99.4137 24.0548 104.938 36.7568 104.938 50C104.938 63.0361 99.5849 75.5472 90.0381 84.8682L89.5801 85.3105C79.7464 94.6759 66.4082 99.9375 52.5 99.9375C38.8091 99.9375 25.6709 94.8386 15.8838 85.7461L15.4199 85.3105C5.58629 75.9452 0.0624999 63.2432 0.0625 50C0.0625001 36.9639 5.41505 24.4528 14.9619 15.1318L15.4199 14.6895C25.2536 5.32411 38.5918 0.0625001 52.5 0.0625ZM61.1807 8.44434C52.8219 6.8613 44.1672 7.59953 36.2451 10.5625L35.4805 10.8555C27.6066 13.9619 20.8407 19.1555 15.9814 25.8115L15.5166 26.46C10.6285 33.4275 8.01953 41.6197 8.01953 50C8.01953 58.1184 10.4684 66.0599 15.0654 72.8828L15.5166 73.54C20.2519 80.2898 26.9203 85.5965 34.7217 88.8369L35.4805 89.1445C43.3542 92.2509 51.9934 93.1354 60.3701 91.7021L61.1807 91.5557C69.5393 89.9726 77.2387 86.1371 83.3682 80.5127L83.957 79.9629C92.2876 72.0103 96.9668 61.2349 96.9668 50C96.9668 39.1163 92.5756 28.6638 84.7275 20.791L83.957 20.0371C77.9297 14.2977 70.3026 10.3324 61.9873 8.60449L61.1807 8.44434ZM68.6533 53.9053C69.1107 53.9053 69.5645 53.9805 69.9941 54.127L70.1768 54.1943C70.5993 54.3612 70.9884 54.5958 71.3262 54.8877L71.4678 55.0166C71.7911 55.3242 72.056 55.682 72.251 56.0742L72.3301 56.2441C72.5299 56.7032 72.6328 57.1956 72.6328 57.6924C72.6328 58.1271 72.554 58.5582 72.4004 58.9668L72.3301 59.1396C72.1552 59.5415 71.909 59.9117 71.6025 60.2334L71.4678 60.3682L55.3145 75.7529C54.9914 76.061 54.6148 76.313 54.2021 76.499L54.0234 76.5742C53.5405 76.7649 53.0229 76.8633 52.5 76.8633C52.0425 76.8633 51.5889 76.7881 51.1592 76.6416L50.9766 76.5742C50.5539 76.4073 50.165 76.1728 49.8271 75.8809L49.6855 75.7529L33.5322 60.3682C32.7865 59.658 32.3682 58.6954 32.3682 57.6924C32.3682 56.6894 32.7866 55.7268 33.5322 55.0166C34.2781 54.3063 35.2906 53.9062 36.3467 53.9062C37.3366 53.9063 38.288 54.2576 39.0176 54.8867L39.1602 55.0166L52.457 67.6846L52.5 67.7256L52.543 67.6846L65.8398 55.0166C66.1629 54.7086 66.5386 54.4555 66.9512 54.2695L67.1299 54.1943C67.6127 54.0037 68.1305 53.9053 68.6533 53.9053ZM68.6533 26.9824C69.1107 26.9824 69.5645 27.0577 69.9941 27.2041L70.1768 27.2715C70.5993 27.4383 70.9884 27.673 71.3262 27.9648L71.4678 28.0938C71.7911 28.4013 72.056 28.7591 72.251 29.1514L72.3301 29.3213C72.5299 29.7804 72.6328 30.2727 72.6328 30.7695C72.6328 31.2043 72.554 31.6354 72.4004 32.0439L72.3301 32.2178C72.1552 32.6194 71.9089 32.989 71.6025 33.3105L71.4678 33.4453L55.3145 48.8301C54.9914 49.1381 54.6147 49.3902 54.2021 49.5762L54.0234 49.6514C53.5405 49.842 53.0229 49.9404 52.5 49.9404C52.0425 49.9404 51.5889 49.8653 51.1592 49.7188L50.9766 49.6514C50.5539 49.4845 50.1651 49.25 49.8271 48.958L49.6855 48.8301L33.5322 33.4453C32.7865 32.7351 32.3682 31.7725 32.3682 30.7695C32.3682 29.8291 32.7359 28.9242 33.3965 28.2295L33.5322 28.0938C34.2781 27.3834 35.2906 26.9834 36.3467 26.9834C37.3366 26.9835 38.288 27.3348 39.0176 27.9639L39.1602 28.0938L52.457 40.7617L52.5 40.8027L52.543 40.7617L65.8398 28.0938C66.1628 27.7859 66.5388 27.5336 66.9512 27.3477L67.1299 27.2715C67.6127 27.0809 68.1305 26.9825 68.6533 26.9824Z" fill="#344253" stroke="#344253" stroke-width="0.125"/>
</svg>
