<svg width="70" height="72" viewBox="0 0 70 72" fill="none" xmlns="http://www.w3.org/2000/svg">
<path d="M63.3333 24.3333H52V16.5556C52 12.43 50.2089 8.47335 47.0208 5.55612C43.8327 2.63888 39.5087 1 35 1C30.4913 1 26.1673 2.63888 22.9792 5.55612C19.7911 8.47335 18 12.43 18 16.5556V24.3333H6.66667C5.16377 24.3333 3.72243 24.8796 2.65973 25.852C1.59702 26.8244 1 28.1433 1 29.5185V65.8148C1 67.19 1.59702 68.5089 2.65973 69.4813C3.72243 70.4537 5.16377 71 6.66667 71H63.3333C64.8362 71 66.2776 70.4537 67.3403 69.4813C68.403 68.5089 69 67.19 69 65.8148V29.5185C69 28.1433 68.403 26.8244 67.3403 25.852C66.2776 24.8796 64.8362 24.3333 63.3333 24.3333ZM23.6667 16.5556C23.6667 13.8052 24.8607 11.1674 26.9861 9.2226C29.1115 7.27777 31.9942 6.18518 35 6.18518C38.0058 6.18518 40.8885 7.27777 43.0139 9.2226C45.1393 11.1674 46.3333 13.8052 46.3333 16.5556V24.3333H23.6667V16.5556ZM63.3333 65.8148H6.66667V29.5185H63.3333V65.8148Z" fill="#344253" stroke="#344253" stroke-width="2"/>
</svg>
