<svg width="70" height="70" viewBox="0 0 70 70" fill="none" xmlns="http://www.w3.org/2000/svg">
<path d="M35 0C28.0777 0 21.3108 2.05271 15.5551 5.89856C9.79933 9.74441 5.3133 15.2107 2.66423 21.6061C0.0151649 28.0015 -0.677952 35.0388 0.672531 41.8282C2.02301 48.6175 5.35644 54.8539 10.2513 59.7487C15.1461 64.6436 21.3825 67.977 28.1718 69.3275C34.9612 70.678 41.9985 69.9848 48.3939 67.3358C54.7893 64.6867 60.2556 60.2007 64.1014 54.445C67.9473 48.6892 70 41.9223 70 35C69.9902 25.7204 66.2996 16.8237 59.7379 10.2621C53.1763 3.70044 44.2796 0.00979939 35 0ZM16.8539 58.3894C18.8015 55.3433 21.4846 52.8366 24.6559 51.1002C27.8272 49.3638 31.3845 48.4536 35 48.4536C38.6155 48.4536 42.1729 49.3638 45.3441 51.1002C48.5154 52.8366 51.1985 55.3433 53.1462 58.3894C47.9579 62.4245 41.5727 64.6152 35 64.6152C28.4273 64.6152 22.0421 62.4245 16.8539 58.3894ZM24.2308 32.3077C24.2308 30.1777 24.8624 28.0956 26.0457 26.3246C27.2291 24.5536 28.911 23.1733 30.8788 22.3582C32.8466 21.5431 35.012 21.3299 37.101 21.7454C39.19 22.1609 41.1089 23.1866 42.615 24.6927C44.1211 26.1988 45.1468 28.1177 45.5623 30.2067C45.9778 32.2957 45.7646 34.4611 44.9495 36.4289C44.1344 38.3967 42.7541 40.0786 40.9831 41.262C39.2121 42.4453 37.13 43.0769 35 43.0769C32.1438 43.0769 29.4046 41.9423 27.385 39.9227C25.3654 37.9031 24.2308 35.1639 24.2308 32.3077ZM57.1308 54.6572C54.1281 50.306 49.9059 46.9398 44.9952 44.9817C47.633 42.9041 49.5579 40.0561 50.5021 36.8338C51.4463 33.6115 51.3628 30.175 50.2634 27.0023C49.164 23.8296 47.1032 21.0784 44.3677 19.1312C41.6321 17.184 38.3578 16.1376 35 16.1376C31.6422 16.1376 28.3679 17.184 25.6323 19.1312C22.8968 21.0784 20.836 23.8296 19.7366 27.0023C18.6372 30.175 18.5538 33.6115 19.4979 36.8338C20.4421 40.0561 22.367 42.9041 25.0048 44.9817C20.0941 46.9398 15.8719 50.306 12.8692 54.6572C9.075 50.3904 6.59506 45.1178 5.72805 39.4743C4.86104 33.8307 5.64392 28.0568 7.98243 22.8479C10.3209 17.639 14.1154 13.2171 18.9088 10.1148C23.7022 7.01244 29.2902 5.36189 35 5.36189C40.7098 5.36189 46.2978 7.01244 51.0912 10.1148C55.8847 13.2171 59.6791 17.639 62.0176 22.8479C64.3561 28.0568 65.139 33.8307 64.272 39.4743C63.405 45.1178 60.925 50.3904 57.1308 54.6572Z" fill="#4E6074"/>
</svg>
