<svg width="58" height="48" viewBox="0 0 58 48" fill="none" xmlns="http://www.w3.org/2000/svg">
<path d="M2.6377 1C3.12679 1.00001 3.56638 1.16283 3.86523 1.41016L30.2275 23.2266V23.2275C30.3734 23.3481 30.4771 23.4808 30.543 23.6123C30.6084 23.7429 30.6377 23.874 30.6377 24C30.6377 24.126 30.6084 24.2571 30.543 24.3877C30.4771 24.5192 30.3734 24.6519 30.2275 24.7725V24.7734L3.86523 46.5898C3.56638 46.8372 3.12679 47 2.6377 47C2.14859 47 1.70901 46.8372 1.41016 46.5898C1.11698 46.3471 1.0001 46.0633 1 45.8174C1 45.602 1.08955 45.3572 1.30859 45.1367L1.41016 45.0439L25.9102 24.7705L26.8418 24L25.9102 23.2295L1.41016 2.95605C1.11673 2.71322 1 2.42869 1 2.18262C1.0001 1.93667 1.11698 1.65286 1.41016 1.41016C1.70901 1.16282 2.14859 1 2.6377 1ZM29 1C29.489 1.00007 29.9287 1.16288 30.2275 1.41016L56.5889 23.2266L56.5898 23.2275C56.7356 23.3481 56.8394 23.4808 56.9053 23.6123C56.9707 23.7429 57 23.874 57 24C57 24.126 56.9707 24.2571 56.9053 24.3877C56.8394 24.5192 56.7356 24.6519 56.5898 24.7725L56.5889 24.7734L30.2275 46.5898C29.9287 46.8371 29.489 46.9999 29 47C28.5109 47 28.0713 46.8372 27.7725 46.5898C27.4792 46.3471 27.3624 46.0634 27.3623 45.8174C27.3623 45.6021 27.4511 45.3571 27.6699 45.1367L27.7725 45.0439L52.2725 24.7705L53.2031 24L52.2725 23.2295L27.7725 2.95605C27.479 2.71322 27.3623 2.42869 27.3623 2.18262C27.3624 1.93662 27.4792 1.65289 27.7725 1.41016C28.0713 1.16283 28.5109 1 29 1Z" fill="#F5F5F5" stroke="#F5F5F5" stroke-width="2"/>
</svg>
