<svg width="41" height="33" viewBox="0 0 41 33" fill="none" xmlns="http://www.w3.org/2000/svg">
<path d="M0 1.5625C0 1.1481 0.16462 0.750672 0.457646 0.457646C0.750672 0.16462 1.1481 0 1.5625 0H35.9375C36.3519 0 36.7493 0.16462 37.0424 0.457646C37.3354 0.750672 37.5 1.1481 37.5 1.5625C37.5 1.9769 37.3354 2.37433 37.0424 2.66735C36.7493 2.96038 36.3519 3.125 35.9375 3.125H1.5625C1.1481 3.125 0.750672 2.96038 0.457646 2.66735C0.16462 2.37433 0 1.9769 0 1.5625ZM1.5625 15.625H35.9375C36.3519 15.625 36.7493 15.4604 37.0424 15.1674C37.3354 14.8743 37.5 14.4769 37.5 14.0625C37.5 13.6481 37.3354 13.2507 37.0424 12.9576C36.7493 12.6646 36.3519 12.5 35.9375 12.5H1.5625C1.1481 12.5 0.750672 12.6646 0.457646 12.9576C0.16462 13.2507 0 13.6481 0 14.0625C0 14.4769 0.16462 14.8743 0.457646 15.1674C0.750672 15.4604 1.1481 15.625 1.5625 15.625ZM21.875 25H1.5625C1.1481 25 0.750672 25.1646 0.457646 25.4576C0.16462 25.7507 0 26.1481 0 26.5625C0 26.9769 0.16462 27.3743 0.457646 27.6674C0.750672 27.9604 1.1481 28.125 1.5625 28.125H21.875C22.2894 28.125 22.6868 27.9604 22.9799 27.6674C23.2729 27.3743 23.4375 26.9769 23.4375 26.5625C23.4375 26.1481 23.2729 25.7507 22.9799 25.4576C22.6868 25.1646 22.2894 25 21.875 25ZM39.0625 25H35.9375V21.875C35.9375 21.4606 35.7729 21.0632 35.4799 20.7701C35.1868 20.4771 34.7894 20.3125 34.375 20.3125C33.9606 20.3125 33.5632 20.4771 33.2701 20.7701C32.9771 21.0632 32.8125 21.4606 32.8125 21.875V25H29.6875C29.2731 25 28.8757 25.1646 28.5826 25.4576C28.2896 25.7507 28.125 26.1481 28.125 26.5625C28.125 26.9769 28.2896 27.3743 28.5826 27.6674C28.8757 27.9604 29.2731 28.125 29.6875 28.125H32.8125V31.25C32.8125 31.6644 32.9771 32.0618 33.2701 32.3549C33.5632 32.6479 33.9606 32.8125 34.375 32.8125C34.7894 32.8125 35.1868 32.6479 35.4799 32.3549C35.7729 32.0618 35.9375 31.6644 35.9375 31.25V28.125H39.0625C39.4769 28.125 39.8743 27.9604 40.1674 27.6674C40.4604 27.3743 40.625 26.9769 40.625 26.5625C40.625 26.1481 40.4604 25.7507 40.1674 25.4576C39.8743 25.1646 39.4769 25 39.0625 25Z" fill="#449B70"/>
</svg>
