<svg width="65" height="65" viewBox="0 0 65 65" fill="none" xmlns="http://www.w3.org/2000/svg">
<path d="M32.5 0C26.0721 0 19.7886 1.90609 14.444 5.47724C9.09938 9.04838 4.93378 14.1242 2.47393 20.0628C0.0140817 26.0014 -0.629527 32.5361 0.624493 38.8404C1.87851 45.1448 4.97384 50.9358 9.51904 55.481C14.0643 60.0262 19.8552 63.1215 26.1596 64.3755C32.464 65.6295 38.9986 64.9859 44.9372 62.5261C50.8758 60.0662 55.9516 55.9006 59.5228 50.556C63.0939 45.2114 65 38.9279 65 32.5C64.9909 23.8833 61.5639 15.622 55.4709 9.52908C49.378 3.43612 41.1168 0.00909943 32.5 0ZM32.5 60C27.061 60 21.7442 58.3872 17.2218 55.3654C12.6995 52.3437 9.17474 48.0488 7.09333 43.0238C5.01192 37.9988 4.46733 32.4695 5.52842 27.135C6.58951 21.8005 9.20863 16.9005 13.0546 13.0546C16.9005 9.20862 21.8006 6.5895 27.135 5.5284C32.4695 4.46731 37.9988 5.0119 43.0238 7.09331C48.0488 9.17472 52.3437 12.6995 55.3654 17.2218C58.3872 21.7442 60 27.061 60 32.5C59.9917 39.7909 57.0918 46.7808 51.9363 51.9363C46.7809 57.0918 39.7909 59.9917 32.5 60ZM36.25 32.5C36.25 33.2417 36.0301 33.9667 35.618 34.5834C35.206 35.2001 34.6203 35.6807 33.9351 35.9645C33.2499 36.2484 32.4959 36.3226 31.7684 36.1779C31.041 36.0332 30.3728 35.6761 29.8484 35.1516C29.3239 34.6272 28.9668 33.959 28.8221 33.2316C28.6774 32.5042 28.7516 31.7502 29.0355 31.0649C29.3193 30.3797 29.7999 29.794 30.4166 29.382C31.0333 28.9699 31.7583 28.75 32.5 28.75C33.4946 28.75 34.4484 29.1451 35.1517 29.8483C35.8549 30.5516 36.25 31.5054 36.25 32.5ZM36.25 18.75C36.25 19.4917 36.0301 20.2167 35.618 20.8334C35.206 21.4501 34.6203 21.9307 33.9351 22.2145C33.2499 22.4984 32.4959 22.5726 31.7684 22.4279C31.041 22.2832 30.3728 21.9261 29.8484 21.4017C29.3239 20.8772 28.9668 20.209 28.8221 19.4816C28.6774 18.7542 28.7516 18.0002 29.0355 17.3149C29.3193 16.6297 29.7999 16.044 30.4166 15.632C31.0333 15.2199 31.7583 15 32.5 15C33.4946 15 34.4484 15.3951 35.1517 16.0983C35.8549 16.8016 36.25 17.7554 36.25 18.75ZM36.25 46.25C36.25 46.9917 36.0301 47.7167 35.618 48.3334C35.206 48.9501 34.6203 49.4307 33.9351 49.7145C33.2499 49.9984 32.4959 50.0726 31.7684 49.9279C31.041 49.7832 30.3728 49.4261 29.8484 48.9016C29.3239 48.3772 28.9668 47.709 28.8221 46.9816C28.6774 46.2542 28.7516 45.5002 29.0355 44.8149C29.3193 44.1297 29.7999 43.544 30.4166 43.132C31.0333 42.7199 31.7583 42.5 32.5 42.5C33.4946 42.5 34.4484 42.8951 35.1517 43.5984C35.8549 44.3016 36.25 45.2554 36.25 46.25Z" fill="#449B70"/>
</svg>
