<svg width="50" height="50" viewBox="0 0 50 50" fill="none" xmlns="http://www.w3.org/2000/svg">
<path d="M49.4134 8.5863L41.4137 0.586555C41.228 0.400608 41.0074 0.253094 40.7646 0.152449C40.5218 0.0518032 40.2616 0 39.9987 0C39.7359 0 39.4757 0.0518032 39.2329 0.152449C38.9901 0.253094 38.7695 0.400608 38.5838 0.586555L14.5845 24.5858C14.3989 24.7717 14.2517 24.9923 14.1513 25.2351C14.0509 25.4779 13.9994 25.738 13.9996 26.0008V34.0005C13.9996 34.5309 14.2103 35.0396 14.5853 35.4147C14.9604 35.7897 15.4691 36.0004 15.9995 36.0004H23.9992C24.262 36.0006 24.5221 35.9491 24.7649 35.8487C25.0077 35.7483 25.2283 35.6011 25.4142 35.4155L49.4134 11.4162C49.5994 11.2305 49.7469 11.0099 49.8476 10.7671C49.9482 10.5243 50 10.2641 50 10.0013C50 9.73844 49.9482 9.47819 49.8476 9.2354C49.7469 8.99261 49.5994 8.77204 49.4134 8.5863ZM23.1718 32.0006H17.9994V26.8282L33.9989 10.8287L39.1713 16.0011L23.1718 32.0006ZM41.9987 13.1737L36.8263 8.00132L39.9987 4.82892L45.1711 10.0013L41.9987 13.1737ZM47.9985 26.0008V46.0001C47.9985 47.061 47.5771 48.0783 46.827 48.8285C46.0768 49.5786 45.0595 50 43.9986 50H3.99987C2.93904 50 1.92166 49.5786 1.17154 48.8285C0.421414 48.0783 0 47.061 0 46.0001V6.00138C0 4.94055 0.421414 3.92317 1.17154 3.17305C1.92166 2.42292 2.93904 2.00151 3.99987 2.00151H23.9992C24.5297 2.00151 25.0384 2.21222 25.4134 2.58728C25.7885 2.96234 25.9992 3.47103 25.9992 4.00145C25.9992 4.53186 25.7885 5.04056 25.4134 5.41562C25.0384 5.79068 24.5297 6.00138 23.9992 6.00138H3.99987V46.0001H43.9986V26.0008C43.9986 25.4703 44.2093 24.9616 44.5844 24.5866C44.9594 24.2115 45.4681 24.0008 45.9986 24.0008C46.529 24.0008 47.0377 24.2115 47.4127 24.5866C47.7878 24.9616 47.9985 25.4703 47.9985 26.0008Z" fill="#37383A"/>
</svg>
