<svg width="30" height="28" viewBox="0 0 30 28" fill="none" xmlns="http://www.w3.org/2000/svg">
<path d="M29.7971 1.3898C29.6195 0.974929 29.3252 0.621998 28.9507 0.374901C28.5763 0.127804 28.1382 -0.00255434 27.6911 3.79226e-05H2.30342C1.85673 0.00092772 1.41989 0.132846 1.0459 0.37979C0.671914 0.626733 0.376844 0.97809 0.196488 1.39124C0.0161329 1.80438 -0.0417566 2.26156 0.0298424 2.70731C0.101441 3.15307 0.299452 3.56824 0.599853 3.90246L0.611393 3.91558L10.3813 14.462V25.6662C10.3812 26.0885 10.4945 26.5029 10.709 26.8652C10.9236 27.2275 11.2314 27.5242 11.5996 27.7236C11.9678 27.9229 12.3827 28.0176 12.7999 27.9973C13.2171 27.9771 13.6211 27.8427 13.9688 27.6086L18.5847 24.4966C18.9011 24.2835 19.1606 23.9947 19.34 23.6558C19.5194 23.317 19.6133 22.9385 19.6132 22.5542V14.462L29.3845 3.91558L29.3961 3.90246C29.6997 3.56976 29.8996 3.15404 29.9709 2.70718C30.0422 2.26033 29.9818 1.80214 29.7971 1.3898ZM17.6197 13.2093C17.42 13.4233 17.3077 13.7056 17.3052 13.9997V22.5542L12.6893 25.6662V13.9997C12.6894 13.7035 12.578 13.4183 12.3777 13.2021L2.30342 2.33332H27.6911L17.6197 13.2093Z" fill="#F5F5F5"/>
</svg>
