<svg width="50" height="50" viewBox="0 0 50 50" fill="none" xmlns="http://www.w3.org/2000/svg">
<path d="M47.9167 7.69231H37.5V5.76923C37.5 4.23914 36.8415 2.77171 35.6694 1.68977C34.4973 0.607828 32.9076 0 31.25 0H18.75C17.0924 0 15.5027 0.607828 14.3306 1.68977C13.1585 2.77171 12.5 4.23914 12.5 5.76923V7.69231H2.08333C1.5308 7.69231 1.0009 7.89492 0.610195 8.25556C0.219494 8.61621 0 9.10535 0 9.61538C0 10.1254 0.219494 10.6146 0.610195 10.9752C1.0009 11.3359 1.5308 11.5385 2.08333 11.5385H4.16667V46.1538C4.16667 47.1739 4.60565 48.1522 5.38705 48.8735C6.16846 49.5948 7.22826 50 8.33333 50H41.6667C42.7717 50 43.8315 49.5948 44.6129 48.8735C45.3943 48.1522 45.8333 47.1739 45.8333 46.1538V11.5385H47.9167C48.4692 11.5385 48.9991 11.3359 49.3898 10.9752C49.7805 10.6146 50 10.1254 50 9.61538C50 9.10535 49.7805 8.61621 49.3898 8.25556C48.9991 7.89492 48.4692 7.69231 47.9167 7.69231ZM16.6667 5.76923C16.6667 5.2592 16.8862 4.77006 17.2769 4.40941C17.6676 4.04876 18.1975 3.84615 18.75 3.84615H31.25C31.8025 3.84615 32.3324 4.04876 32.7231 4.40941C33.1138 4.77006 33.3333 5.2592 33.3333 5.76923V7.69231H16.6667V5.76923ZM41.6667 46.1538H8.33333V11.5385H41.6667V46.1538ZM20.8333 21.1538V36.5385C20.8333 37.0485 20.6138 37.5376 20.2231 37.8983C19.8324 38.2589 19.3025 38.4615 18.75 38.4615C18.1975 38.4615 17.6676 38.2589 17.2769 37.8983C16.8862 37.5376 16.6667 37.0485 16.6667 36.5385V21.1538C16.6667 20.6438 16.8862 20.1547 17.2769 19.794C17.6676 19.4334 18.1975 19.2308 18.75 19.2308C19.3025 19.2308 19.8324 19.4334 20.2231 19.794C20.6138 20.1547 20.8333 20.6438 20.8333 21.1538ZM33.3333 21.1538V36.5385C33.3333 37.0485 33.1138 37.5376 32.7231 37.8983C32.3324 38.2589 31.8025 38.4615 31.25 38.4615C30.6975 38.4615 30.1676 38.2589 29.7769 37.8983C29.3862 37.5376 29.1667 37.0485 29.1667 36.5385V21.1538C29.1667 20.6438 29.3862 20.1547 29.7769 19.794C30.1676 19.4334 30.6975 19.2308 31.25 19.2308C31.8025 19.2308 32.3324 19.4334 32.7231 19.794C33.1138 20.1547 33.3333 20.6438 33.3333 21.1538Z" fill="#FF0000"/>
</svg>
