<svg width="41" height="33" viewBox="0 0 41 33" fill="none" xmlns="http://www.w3.org/2000/svg">
<path d="M37.5 4.6875H20.834L15.416 0.625C14.8743 0.220811 14.2169 0.00167644 13.541 0H3.125C2.2962 0 1.50134 0.32924 0.915291 0.915291C0.32924 1.50134 0 2.2962 0 3.125V29.6875C0 30.5163 0.32924 31.3112 0.915291 31.8972C1.50134 32.4833 2.2962 32.8125 3.125 32.8125H37.6738C38.4562 32.8115 39.2063 32.5002 39.7595 31.947C40.3127 31.3938 40.624 30.6437 40.625 29.8613V7.8125C40.625 6.9837 40.2958 6.18884 39.7097 5.60279C39.1237 5.01674 38.3288 4.6875 37.5 4.6875ZM37.5 29.6875H3.125V3.125H13.541L19.375 7.5C19.6455 7.70285 19.9744 7.8125 20.3125 7.8125H37.5V29.6875ZM26.5625 18.75C26.5625 19.1644 26.3979 19.5618 26.1049 19.8549C25.8118 20.1479 25.4144 20.3125 25 20.3125H21.875V23.4375C21.875 23.8519 21.7104 24.2493 21.4174 24.5424C21.1243 24.8354 20.7269 25 20.3125 25C19.8981 25 19.5007 24.8354 19.2076 24.5424C18.9146 24.2493 18.75 23.8519 18.75 23.4375V20.3125H15.625C15.2106 20.3125 14.8132 20.1479 14.5201 19.8549C14.2271 19.5618 14.0625 19.1644 14.0625 18.75C14.0625 18.3356 14.2271 17.9382 14.5201 17.6451C14.8132 17.3521 15.2106 17.1875 15.625 17.1875H18.75V14.0625C18.75 13.6481 18.9146 13.2507 19.2076 12.9576C19.5007 12.6646 19.8981 12.5 20.3125 12.5C20.7269 12.5 21.1243 12.6646 21.4174 12.9576C21.7104 13.2507 21.875 13.6481 21.875 14.0625V17.1875H25C25.4144 17.1875 25.8118 17.3521 26.1049 17.6451C26.3979 17.9382 26.5625 18.3356 26.5625 18.75Z" fill="#449B70"/>
</svg>
