<svg width="20" height="31" viewBox="0 0 20 31" fill="none" xmlns="http://www.w3.org/2000/svg">
<path d="M19.5116 28.5933C19.6665 28.7242 19.7893 28.8796 19.8731 29.0507C19.9569 29.2217 20 29.4051 20 29.5902C20 29.7753 19.9569 29.9587 19.8731 30.1297C19.7893 30.3007 19.6665 30.4562 19.5116 30.5871C19.3568 30.718 19.173 30.8218 18.9707 30.8927C18.7684 30.9635 18.5516 31 18.3326 31C18.1136 31 17.8968 30.9635 17.6945 30.8927C17.4922 30.8218 17.3084 30.718 17.1536 30.5871L0.488756 16.4969C0.333812 16.366 0.210896 16.2106 0.127031 16.0396C0.0431667 15.8685 0 15.6852 0 15.5C0 15.3148 0.0431667 15.1315 0.127031 14.9604C0.210896 14.7894 0.333812 14.634 0.488756 14.5031L17.1536 0.412922C17.4663 0.148532 17.8904 -7.37052e-09 18.3326 0C18.7748 7.37052e-09 19.1989 0.148532 19.5116 0.412922C19.8243 0.677311 20 1.0359 20 1.4098C20 1.78371 19.8243 2.14229 19.5116 2.40668L4.02378 15.5L19.5116 28.5933Z" fill="white"/>
</svg>
